Roman_opsz8.ufo
<glyph name="ampersand" format="2">
  <advance width="826"/>
  <unicode hex="0026"/>
  <outline>
    <contour>
      <point x="237" y="-21" type="curve" smooth="yes"/>
      <point x="319" y="-21"/>
      <point x="387" y="18"/>
      <point x="429" y="53" type="curve"/>
      <point x="452" y="34"/>
      <point x="522" y="-21"/>
      <point x="616" y="-21" type="curve" smooth="yes"/>
      <point x="693" y="-21"/>
      <point x="764" y="32"/>
      <point x="766" y="121" type="curve"/>
      <point x="735" y="121" type="line"/>
      <point x="733" y="45"/>
      <point x="667" y="12"/>
      <point x="620" y="12" type="curve" smooth="yes"/>
      <point x="576" y="12"/>
      <point x="530" y="39"/>
      <point x="476" y="96" type="curve"/>
      <point x="532" y="160"/>
      <point x="561" y="202"/>
      <point x="631" y="312" type="curve" smooth="yes"/>
      <point x="658" y="355"/>
      <point x="685" y="397"/>
      <point x="772" y="398" type="curve"/>
      <point x="772" y="431" type="line"/>
      <point x="741" y="428"/>
      <point x="697" y="428"/>
      <point x="670" y="428" type="curve" smooth="yes"/>
      <point x="625" y="428"/>
      <point x="611" y="428"/>
      <point x="550" y="431" type="curve"/>
      <point x="550" y="398" type="line"/>
      <point x="599" y="398"/>
      <point x="616" y="377"/>
      <point x="616" y="356" type="curve" smooth="yes"/>
      <point x="616" y="344"/>
      <point x="601" y="322"/>
      <point x="591" y="305" type="curve" smooth="yes"/>
      <point x="550" y="242"/>
      <point x="508" y="176"/>
      <point x="455" y="120" type="curve"/>
      <point x="440" y="137"/>
      <point x="330" y="266"/>
      <point x="283" y="380" type="curve"/>
      <point x="414" y="513"/>
      <point x="414" y="559"/>
      <point x="414" y="583" type="curve" smooth="yes"/>
      <point x="414" y="631"/>
      <point x="393" y="715"/>
      <point x="319" y="715" type="curve" smooth="yes"/>
      <point x="251" y="715"/>
      <point x="172" y="658"/>
      <point x="172" y="551" type="curve" smooth="yes"/>
      <point x="172" y="492"/>
      <point x="186" y="419"/>
      <point x="213" y="352" type="curve"/>
      <point x="109" y="249" type="line" smooth="yes"/>
      <point x="72" y="213"/>
      <point x="44" y="186"/>
      <point x="44" y="131" type="curve" smooth="yes"/>
      <point x="44" y="41"/>
      <point x="132" y="-21"/>
    </contour>
    <contour>
      <point x="243" y="12" type="curve" smooth="yes"/>
      <point x="161" y="12"/>
      <point x="133" y="101"/>
      <point x="133" y="158" type="curve" smooth="yes"/>
      <point x="133" y="203"/>
      <point x="147" y="246"/>
      <point x="174" y="273" type="curve" smooth="yes"/>
      <point x="225" y="323" type="line"/>
      <point x="271" y="230"/>
      <point x="315" y="166"/>
      <point x="405" y="73" type="curve"/>
      <point x="348" y="30"/>
      <point x="293" y="12"/>
    </contour>
    <contour>
      <point x="272" y="410" type="curve"/>
      <point x="249" y="474"/>
      <point x="242" y="533"/>
      <point x="242" y="573" type="curve" smooth="yes"/>
      <point x="242" y="664"/>
      <point x="293" y="687"/>
      <point x="320" y="687" type="curve" smooth="yes"/>
      <point x="372" y="687"/>
      <point x="383" y="612"/>
      <point x="383" y="584" type="curve" smooth="yes"/>
      <point x="383" y="532"/>
      <point x="345" y="491"/>
    </contour>
  </outline>
</glyph>
<glyph name="asterisk" format="2">
  <advance width="531"/>
  <unicode hex="002A"/>
  <outline>
    <contour>
      <point x="265" y="319" type="curve" smooth="yes"/>
      <point x="292" y="319"/>
      <point x="296" y="341"/>
      <point x="294" y="358" type="curve" smooth="yes"/>
      <point x="279" y="510" type="line"/>
      <point x="408" y="420" type="line" smooth="yes"/>
      <point x="421" y="411"/>
      <point x="427" y="411"/>
      <point x="431" y="411" type="curve" smooth="yes"/>
      <point x="449" y="411"/>
      <point x="461" y="427"/>
      <point x="461" y="442" type="curve" smooth="yes"/>
      <point x="461" y="461"/>
      <point x="448" y="467"/>
      <point x="438" y="471" type="curve" smooth="yes"/>
      <point x="294" y="534" type="line"/>
      <point x="438" y="598" type="line" smooth="yes"/>
      <point x="448" y="602"/>
      <point x="461" y="608"/>
      <point x="461" y="627" type="curve" smooth="yes"/>
      <point x="461" y="642"/>
      <point x="449" y="658"/>
      <point x="431" y="658" type="curve" smooth="yes"/>
      <point x="424" y="658"/>
      <point x="421" y="657"/>
      <point x="409" y="649" type="curve" smooth="yes"/>
      <point x="279" y="559" type="line"/>
      <point x="294" y="710" type="line" smooth="yes"/>
      <point x="296" y="727"/>
      <point x="293" y="750"/>
      <point x="265" y="750" type="curve" smooth="yes"/>
      <point x="247" y="750"/>
      <point x="234" y="735"/>
      <point x="235" y="721" type="curve" smooth="yes"/>
      <point x="251" y="559" type="line"/>
      <point x="122" y="649" type="line" smooth="yes"/>
      <point x="109" y="658"/>
      <point x="103" y="658"/>
      <point x="99" y="658" type="curve" smooth="yes"/>
      <point x="81" y="658"/>
      <point x="69" y="642"/>
      <point x="69" y="627" type="curve" smooth="yes"/>
      <point x="69" y="608"/>
      <point x="82" y="602"/>
      <point x="92" y="598" type="curve" smooth="yes"/>
      <point x="236" y="535" type="line"/>
      <point x="92" y="471" type="line" smooth="yes"/>
      <point x="82" y="467"/>
      <point x="69" y="461"/>
      <point x="69" y="442" type="curve" smooth="yes"/>
      <point x="69" y="436"/>
      <point x="71" y="411"/>
      <point x="106" y="411" type="curve" smooth="yes"/>
      <point x="106" y="411"/>
      <point x="106" y="411"/>
      <point x="106" y="411" type="curve"/>
      <point x="251" y="510" type="line"/>
      <point x="236" y="349" type="line" smooth="yes"/>
      <point x="235" y="337"/>
      <point x="242" y="319"/>
    </contour>
  </outline>
</glyph>
<glyph name="zero" format="2">
  <advance width="531"/>
  <unicode hex="0030"/>
  <outline>
    <contour>
      <point x="489" y="319" type="curve" smooth="yes"/>
      <point x="489" y="426"/>
      <point x="478" y="491"/>
      <point x="445" y="555" type="curve" smooth="yes"/>
      <point x="401" y="643"/>
      <point x="320" y="665"/>
      <point x="265" y="665" type="curve" smooth="yes"/>
      <point x="139" y="665"/>
      <point x="93" y="571"/>
      <point x="79" y="543" type="curve" smooth="yes"/>
      <point x="43" y="470"/>
      <point x="41" y="371"/>
      <point x="41" y="319" type="curve" smooth="yes"/>
      <point x="41" y="253"/>
      <point x="44" y="152"/>
      <point x="92" y="72" type="curve" smooth="yes"/>
      <point x="138" y="-2"/>
      <point x="212" y="-21"/>
      <point x="265" y="-21" type="curve" smooth="yes"/>
      <point x="313" y="-21"/>
      <point x="399" y="-6"/>
      <point x="449" y="93" type="curve" smooth="yes"/>
      <point x="486" y="165"/>
      <point x="489" y="254"/>
    </contour>
    <contour>
      <point x="265" y="7" type="curve" smooth="yes"/>
      <point x="231" y="7"/>
      <point x="162" y="23"/>
      <point x="141" y="128" type="curve" smooth="yes"/>
      <point x="130" y="185"/>
      <point x="130" y="279"/>
      <point x="130" y="331" type="curve" smooth="yes"/>
      <point x="130" y="400"/>
      <point x="130" y="470"/>
      <point x="141" y="525" type="curve" smooth="yes"/>
      <point x="162" y="627"/>
      <point x="240" y="637"/>
      <point x="265" y="637" type="curve" smooth="yes"/>
      <point x="299" y="637"/>
      <point x="368" y="620"/>
      <point x="388" y="529" type="curve" smooth="yes"/>
      <point x="400" y="474"/>
      <point x="400" y="399"/>
      <point x="400" y="331" type="curve" smooth="yes"/>
      <point x="400" y="272"/>
      <point x="400" y="182"/>
      <point x="388" y="126" type="curve" smooth="yes"/>
      <point x="367" y="21"/>
      <point x="298" y="7"/>
    </contour>
  </outline>
</glyph>
<glyph name="three" format="2">
  <advance width="531"/>
  <unicode hex="0033"/>
  <outline>
    <contour>
      <point x="253" y="334" type="line" smooth="yes"/>
      <point x="332" y="334"/>
      <point x="382" y="276"/>
      <point x="382" y="171" type="curve" smooth="yes"/>
      <point x="382" y="46"/>
      <point x="311" y="9"/>
      <point x="258" y="9" type="curve" smooth="yes"/>
      <point x="203" y="9"/>
      <point x="128" y="29"/>
      <point x="93" y="82" type="curve"/>
      <point x="129" y="82"/>
      <point x="154" y="105"/>
      <point x="154" y="138" type="curve" smooth="yes"/>
      <point x="154" y="170"/>
      <point x="131" y="193"/>
      <point x="99" y="193" type="curve" smooth="yes"/>
      <point x="72" y="193"/>
      <point x="44" y="176"/>
      <point x="44" y="136" type="curve" smooth="yes"/>
      <point x="44" y="41"/>
      <point x="146" y="-21"/>
      <point x="260" y="-21" type="curve" smooth="yes"/>
      <point x="393" y="-21"/>
      <point x="486" y="71"/>
      <point x="486" y="171" type="curve" smooth="yes"/>
      <point x="486" y="254"/>
      <point x="420" y="330"/>
      <point x="318" y="352" type="curve"/>
      <point x="397" y="380"/>
      <point x="456" y="448"/>
      <point x="456" y="528" type="curve" smooth="yes"/>
      <point x="456" y="608"/>
      <point x="366" y="665"/>
      <point x="262" y="665" type="curve" smooth="yes"/>
      <point x="155" y="665"/>
      <point x="74" y="607"/>
      <point x="74" y="531" type="curve" smooth="yes"/>
      <point x="74" y="494"/>
      <point x="99" y="478"/>
      <point x="125" y="478" type="curve" smooth="yes"/>
      <point x="156" y="478"/>
      <point x="176" y="500"/>
      <point x="176" y="529" type="curve" smooth="yes"/>
      <point x="176" y="566"/>
      <point x="144" y="580"/>
      <point x="122" y="581" type="curve"/>
      <point x="164" y="636"/>
      <point x="241" y="639"/>
      <point x="259" y="639" type="curve" smooth="yes"/>
      <point x="285" y="639"/>
      <point x="361" y="631"/>
      <point x="361" y="528" type="curve" smooth="yes"/>
      <point x="361" y="458"/>
      <point x="332" y="416"/>
      <point x="318" y="400" type="curve"/>
      <point x="288" y="369"/>
      <point x="265" y="367"/>
      <point x="204" y="363" type="curve" smooth="yes"/>
      <point x="185" y="362"/>
      <point x="177" y="361"/>
      <point x="177" y="348" type="curve" smooth="yes"/>
      <point x="177" y="334"/>
      <point x="186" y="334"/>
      <point x="203" y="334" type="curve" smooth="yes"/>
    </contour>
  </outline>
</glyph>
<glyph name="four" format="2">
  <advance width="531"/>
  <unicode hex="0034"/>
  <outline>
    <contour>
      <point x="394" y="647" type="line" smooth="yes"/>
      <point x="394" y="667"/>
      <point x="394" y="675"/>
      <point x="373" y="675" type="curve" smooth="yes"/>
      <point x="360" y="675"/>
      <point x="359" y="674"/>
      <point x="349" y="660" type="curve" smooth="yes"/>
      <point x="30" y="197" type="line"/>
      <point x="30" y="164" type="line"/>
      <point x="312" y="164" type="line"/>
      <point x="312" y="81" type="line" smooth="yes"/>
      <point x="312" y="44"/>
      <point x="309" y="33"/>
      <point x="232" y="33" type="curve" smooth="yes"/>
      <point x="209" y="33" type="line"/>
      <point x="209" y="0" type="line"/>
      <point x="294" y="3"/>
      <point x="296" y="3"/>
      <point x="353" y="3" type="curve" smooth="yes"/>
      <point x="410" y="3"/>
      <point x="412" y="3"/>
      <point x="497" y="0" type="curve"/>
      <point x="497" y="33" type="line"/>
      <point x="474" y="33" type="line" smooth="yes"/>
      <point x="397" y="33"/>
      <point x="394" y="44"/>
      <point x="394" y="81" type="curve" smooth="yes"/>
      <point x="394" y="164" type="line"/>
      <point x="500" y="164" type="line"/>
      <point x="500" y="197" type="line"/>
      <point x="394" y="197" type="line"/>
    </contour>
    <contour>
      <point x="319" y="566" type="line"/>
      <point x="319" y="197" type="line"/>
      <point x="65" y="197" type="line"/>
    </contour>
  </outline>
</glyph>
<glyph name="six" format="2">
  <advance width="531"/>
  <unicode hex="0036"/>
  <outline>
    <contour>
      <point x="267" y="-21" type="curve" smooth="yes"/>
      <point x="289.56" y="-21.0"/>
      <point x="313.0036" y="-18.1283"/>
      <point x="336.18874700000003" y="-10.619909000000002" type="curve" smooth="yes"/>
      <point x="362.33369999999996" y="-2.1530000000000005"/>
      <point x="388.15" y="12.209999999999999"/>
      <point x="412" y="35" type="curve" smooth="yes"/>
      <point x="452" y="74"/>
      <point x="486" y="116"/>
      <point x="486" y="203" type="curve" smooth="yes"/>
      <point x="486" y="334"/>
      <point x="387" y="426"/>
      <point x="276" y="426" type="curve" smooth="yes"/>
      <point x="204" y="426"/>
      <point x="161" y="380"/>
      <point x="138" y="331" type="curve"/>
      <point x="138" y="414"/>
      <point x="145" y="487"/>
      <point x="181" y="548" type="curve" smooth="yes"/>
      <point x="211" y="598"/>
      <point x="262" y="639"/>
      <point x="325" y="639" type="curve" smooth="yes"/>
      <point x="345" y="639"/>
      <point x="391" y="636"/>
      <point x="414" y="601" type="curve"/>
      <point x="369" y="599"/>
      <point x="365" y="565"/>
      <point x="365" y="554" type="curve" smooth="yes"/>
      <point x="365" y="524"/>
      <point x="388" y="507"/>
      <point x="412" y="507" type="curve" smooth="yes"/>
      <point x="430" y="507"/>
      <point x="459" y="518"/>
      <point x="459" y="556" type="curve" smooth="yes"/>
      <point x="459" y="616"/>
      <point x="414" y="665"/>
      <point x="324" y="665" type="curve" smooth="yes"/>
      <point x="185" y="665"/>
      <point x="44" y="533"/>
      <point x="44" y="317" type="curve" smooth="yes"/>
      <point x="44" y="46"/>
      <point x="170" y="-21"/>
    </contour>
    <contour>
      <point x="267" y="9" type="curve" smooth="yes"/>
      <point x="214" y="9"/>
      <point x="181" y="46"/>
      <point x="166" y="74" type="curve" smooth="yes"/>
      <point x="143" y="119"/>
      <point x="141" y="187"/>
      <point x="141" y="225" type="curve" smooth="yes"/>
      <point x="141" y="324"/>
      <point x="195" y="398"/>
      <point x="272" y="398" type="curve" smooth="yes"/>
      <point x="322" y="398"/>
      <point x="352" y="372"/>
      <point x="371" y="337" type="curve" smooth="yes"/>
      <point x="392" y="300"/>
      <point x="392" y="255"/>
      <point x="392" y="204" type="curve" smooth="yes"/>
      <point x="392" y="153"/>
      <point x="392" y="109"/>
      <point x="372" y="73" type="curve" smooth="yes"/>
      <point x="346" y="27"/>
      <point x="311" y="9"/>
    </contour>
  </outline>
</glyph>
<glyph name="eight" format="2">
  <advance width="531"/>
  <unicode hex="0038"/>
  <outline>
    <contour>
      <point x="332" y="361" type="curve"/>
      <point x="388" y="388"/>
      <point x="456" y="438"/>
      <point x="456" y="516" type="curve" smooth="yes"/>
      <point x="456" y="611"/>
      <point x="359" y="665"/>
      <point x="266" y="665" type="curve" smooth="yes"/>
      <point x="160" y="665"/>
      <point x="74" y="592"/>
      <point x="74" y="498" type="curve" smooth="yes"/>
      <point x="74" y="461"/>
      <point x="87" y="427"/>
      <point x="112" y="398" type="curve" smooth="yes"/>
      <point x="129" y="377"/>
      <point x="133" y="375"/>
      <point x="195" y="336" type="curve"/>
      <point x="71" y="281"/>
      <point x="44" y="208"/>
      <point x="44" y="152" type="curve" smooth="yes"/>
      <point x="44" y="42"/>
      <point x="155" y="-21"/>
      <point x="264" y="-21" type="curve" smooth="yes"/>
      <point x="387" y="-21"/>
      <point x="486" y="62"/>
      <point x="486" y="168" type="curve" smooth="yes"/>
      <point x="486" y="231"/>
      <point x="452" y="273"/>
      <point x="436" y="290" type="curve"/>
      <point x="419" y="306"/>
      <point x="418" y="307"/>
    </contour>
    <contour>
      <point x="177" y="455" type="line" smooth="yes"/>
      <point x="148" y="472"/>
      <point x="124" y="501"/>
      <point x="124" y="536" type="curve" smooth="yes"/>
      <point x="124" y="599"/>
      <point x="193" y="639"/>
      <point x="264" y="639" type="curve" smooth="yes"/>
      <point x="342" y="639"/>
      <point x="406" y="586"/>
      <point x="406" y="516" type="curve" smooth="yes"/>
      <point x="406" y="458"/>
      <point x="361" y="409"/>
      <point x="302" y="380" type="curve"/>
    </contour>
    <contour>
      <point x="226" y="318" type="curve"/>
      <point x="230" y="316"/>
      <point x="344" y="246"/>
      <point x="361" y="235" type="curve"/>
      <point x="377" y="226"/>
      <point x="429" y="194"/>
      <point x="429" y="134" type="curve" smooth="yes"/>
      <point x="429" y="57"/>
      <point x="348" y="9"/>
      <point x="266" y="9" type="curve" smooth="yes"/>
      <point x="177" y="9"/>
      <point x="101" y="70"/>
      <point x="101" y="152" type="curve" smooth="yes"/>
      <point x="101" y="227"/>
      <point x="157" y="286"/>
    </contour>
  </outline>
</glyph>
<glyph name="nine" format="2">
  <advance width="531"/>
  <unicode hex="0039"/>
  <outline>
    <contour>
      <point x="392" y="295" type="line" smooth="yes"/>
      <point x="392" y="51"/>
      <point x="276" y="9"/>
      <point x="218" y="9" type="curve" smooth="yes"/>
      <point x="197" y="9"/>
      <point x="145" y="12"/>
      <point x="118" y="43" type="curve"/>
      <point x="162" y="47"/>
      <point x="165" y="80"/>
      <point x="165" y="90" type="curve" smooth="yes"/>
      <point x="165" y="120"/>
      <point x="142" y="137"/>
      <point x="118" y="137" type="curve" smooth="yes"/>
      <point x="100" y="137"/>
      <point x="71" y="126"/>
      <point x="71" y="88" type="curve" smooth="yes"/>
      <point x="71" y="20"/>
      <point x="127" y="-21"/>
      <point x="219" y="-21" type="curve" smooth="yes"/>
      <point x="356" y="-21"/>
      <point x="486" y="115"/>
      <point x="486" y="329" type="curve" smooth="yes"/>
      <point x="486" y="589"/>
      <point x="371" y="665"/>
      <point x="268" y="665" type="curve" smooth="yes"/>
      <point x="150" y="665"/>
      <point x="44" y="573"/>
      <point x="44" y="442" type="curve" smooth="yes"/>
      <point x="44" y="313"/>
      <point x="141" y="219"/>
      <point x="254" y="219" type="curve" smooth="yes"/>
      <point x="325" y="219"/>
      <point x="368" y="264"/>
      <point x="392" y="315" type="curve"/>
    </contour>
    <contour>
      <point x="258" y="247" type="curve" smooth="yes"/>
      <point x="212" y="247"/>
      <point x="183" y="268"/>
      <point x="161" y="305" type="curve" smooth="yes"/>
      <point x="138" y="342"/>
      <point x="138" y="390"/>
      <point x="138" y="441" type="curve" smooth="yes"/>
      <point x="138" y="500"/>
      <point x="138" y="542"/>
      <point x="165" y="583" type="curve" smooth="yes"/>
      <point x="190" y="619"/>
      <point x="222" y="639"/>
      <point x="269" y="639" type="curve" smooth="yes"/>
      <point x="336" y="639"/>
      <point x="365" y="573"/>
      <point x="368" y="568" type="curve"/>
      <point x="389" y="519"/>
      <point x="390" y="441"/>
      <point x="390" y="421" type="curve" smooth="yes"/>
      <point x="390" y="342"/>
      <point x="347" y="247"/>
    </contour>
  </outline>
</glyph>
<glyph name="D" format="2">
  <advance width="811"/>
  <unicode hex="0044"/>
  <outline>
    <contour>
      <point x="147" y="81" type="line" smooth="yes"/>
      <point x="147" y="44"/>
      <point x="145" y="33"/>
      <point x="68" y="33" type="curve" smooth="yes"/>
      <point x="61" y="33"/>
      <point x="53" y="33"/>
      <point x="46" y="33" type="curve"/>
      <point x="46" y="0" type="line"/>
      <point x="426" y="0" type="line" smooth="yes"/>
      <point x="606" y="0"/>
      <point x="751" y="150"/>
      <point x="751" y="335" type="curve" smooth="yes"/>
      <point x="751" y="528"/>
      <point x="605" y="683"/>
      <point x="426" y="683" type="curve" smooth="yes"/>
      <point x="46" y="683" type="line"/>
      <point x="46" y="650" type="line"/>
      <point x="53" y="650"/>
      <point x="61" y="650"/>
      <point x="68" y="650" type="curve" smooth="yes"/>
      <point x="145" y="650"/>
      <point x="147" y="639"/>
      <point x="147" y="602" type="curve" smooth="yes"/>
    </contour>
    <contour>
      <point x="284" y="33" type="line" smooth="yes"/>
      <point x="238" y="33"/>
      <point x="236" y="40"/>
      <point x="236" y="74" type="curve" smooth="yes"/>
      <point x="236" y="609" type="line" smooth="yes"/>
      <point x="236" y="643"/>
      <point x="238" y="650"/>
      <point x="284" y="650" type="curve" smooth="yes"/>
      <point x="399" y="650" type="line" smooth="yes"/>
      <point x="477" y="650"/>
      <point x="542" y="618"/>
      <point x="586" y="568" type="curve" smooth="yes"/>
      <point x="650" y="492"/>
      <point x="650" y="385"/>
      <point x="650" y="336" type="curve" smooth="yes"/>
      <point x="650" y="285"/>
      <point x="650" y="187"/>
      <point x="587" y="113" type="curve" smooth="yes"/>
      <point x="552" y="72"/>
      <point x="488" y="33"/>
      <point x="399" y="33" type="curve" smooth="yes"/>
    </contour>
  </outline>
</glyph>
<glyph name="E" format="2">
  <advance width="722"/>
  <unicode hex="0045"/>
  <outline>
    <contour>
      <point x="692" y="260" type="line"/>
      <point x="661" y="260" type="line"/>
      <point x="635" y="110"/>
      <point x="614" y="33"/>
      <point x="434" y="33" type="curve" smooth="yes"/>
      <point x="285" y="33" type="line" smooth="yes"/>
      <point x="239" y="33"/>
      <point x="237" y="40"/>
      <point x="237" y="74" type="curve" smooth="yes"/>
      <point x="237" y="337" type="line"/>
      <point x="334" y="337" type="line" smooth="yes"/>
      <point x="433" y="337"/>
      <point x="447" y="307"/>
      <point x="447" y="220" type="curve"/>
      <point x="478" y="220" type="line"/>
      <point x="478" y="487" type="line"/>
      <point x="447" y="487" type="line"/>
      <point x="447" y="400"/>
      <point x="433" y="370"/>
      <point x="334" y="370" type="curve" smooth="yes"/>
      <point x="237" y="370" type="line"/>
      <point x="237" y="606" type="line" smooth="yes"/>
      <point x="237" y="640"/>
      <point x="239" y="647"/>
      <point x="285" y="647" type="curve" smooth="yes"/>
      <point x="427" y="647" type="line" smooth="yes"/>
      <point x="593" y="647"/>
      <point x="614" y="587"/>
      <point x="632" y="453" type="curve"/>
      <point x="663" y="453" type="line"/>
      <point x="634" y="680" type="line"/>
      <point x="44" y="680" type="line"/>
      <point x="44" y="647" type="line"/>
      <point x="66" y="647" type="line" smooth="yes"/>
      <point x="143" y="647"/>
      <point x="145" y="636"/>
      <point x="145" y="599" type="curve" smooth="yes"/>
      <point x="145" y="81" type="line" smooth="yes"/>
      <point x="145" y="44"/>
      <point x="143" y="33"/>
      <point x="66" y="33" type="curve" smooth="yes"/>
      <point x="44" y="33" type="line"/>
      <point x="44" y="0" type="line"/>
      <point x="648" y="0" type="line"/>
    </contour>
  </outline>
</glyph>
<glyph name="F" format="2">
  <advance width="693"/>
  <unicode hex="0046"/>
  <outline>
    <contour>
      <point x="145" y="81" type="line" smooth="yes"/>
      <point x="145" y="44"/>
      <point x="143" y="33"/>
      <point x="66" y="33" type="curve" smooth="yes"/>
      <point x="44" y="33" type="line"/>
      <point x="44" y="0" type="line"/>
      <point x="129" y="3"/>
      <point x="131" y="3"/>
      <point x="198" y="3" type="curve" smooth="yes"/>
      <point x="245" y="3"/>
      <point x="318" y="3"/>
      <point x="363" y="0" type="curve"/>
      <point x="363" y="33" type="line"/>
      <point x="331" y="33" type="line" smooth="yes"/>
      <point x="237" y="33"/>
      <point x="237" y="47"/>
      <point x="237" y="82" type="curve" smooth="yes"/>
      <point x="237" y="324" type="line"/>
      <point x="330" y="324" type="line" smooth="yes"/>
      <point x="428" y="324"/>
      <point x="440" y="293"/>
      <point x="440" y="207" type="curve"/>
      <point x="471" y="207" type="line"/>
      <point x="471" y="474" type="line"/>
      <point x="440" y="474" type="line"/>
      <point x="440" y="389"/>
      <point x="428" y="357"/>
      <point x="330" y="357" type="curve" smooth="yes"/>
      <point x="237" y="357" type="line"/>
      <point x="237" y="606" type="line" smooth="yes"/>
      <point x="237" y="640"/>
      <point x="239" y="647"/>
      <point x="285" y="647" type="curve" smooth="yes"/>
      <point x="418" y="647" type="line" smooth="yes"/>
      <point x="581" y="647"/>
      <point x="600" y="584"/>
      <point x="617" y="453" type="curve"/>
      <point x="648" y="453" type="line"/>
      <point x="619" y="680" type="line"/>
      <point x="44" y="680" type="line"/>
      <point x="44" y="647" type="line"/>
      <point x="66" y="647" type="line" smooth="yes"/>
      <point x="143" y="647"/>
      <point x="145" y="636"/>
      <point x="145" y="599" type="curve" smooth="yes"/>
    </contour>
  </outline>
</glyph>
<glyph name="M" format="2">
  <advance width="972"/>
  <unicode hex="004D"/>
  <outline>
    <contour>
      <point x="150" y="107" type="line" smooth="yes"/>
      <point x="150" y="81"/>
      <point x="150" y="33"/>
      <point x="49" y="33" type="curve"/>
      <point x="49" y="0" type="line"/>
      <point x="94" y="3"/>
      <point x="141" y="3"/>
      <point x="167" y="3" type="curve" smooth="yes"/>
      <point x="193" y="3"/>
      <point x="240" y="3"/>
      <point x="285" y="0" type="curve"/>
      <point x="285" y="33" type="line"/>
      <point x="184" y="33"/>
      <point x="184" y="81"/>
      <point x="184" y="107" type="curve" smooth="yes"/>
      <point x="184" y="638" type="line"/>
      <point x="185" y="639" type="line"/>
      <point x="437" y="24" type="line" smooth="yes"/>
      <point x="443" y="11"/>
      <point x="447" y="0"/>
      <point x="461" y="0" type="curve" smooth="yes"/>
      <point x="474" y="0"/>
      <point x="479" y="12"/>
      <point x="484" y="24" type="curve" smooth="yes"/>
      <point x="739" y="647" type="line"/>
      <point x="740" y="646" type="line"/>
      <point x="740" y="81" type="line" smooth="yes"/>
      <point x="740" y="44"/>
      <point x="738" y="33"/>
      <point x="661" y="33" type="curve" smooth="yes"/>
      <point x="639" y="33" type="line"/>
      <point x="639" y="0" type="line"/>
      <point x="718" y="3"/>
      <point x="720" y="3"/>
      <point x="781" y="3" type="curve" smooth="yes"/>
      <point x="842" y="3"/>
      <point x="844" y="3"/>
      <point x="923" y="0" type="curve"/>
      <point x="923" y="33" type="line"/>
      <point x="901" y="33" type="line" smooth="yes"/>
      <point x="824" y="33"/>
      <point x="822" y="44"/>
      <point x="822" y="81" type="curve" smooth="yes"/>
      <point x="822" y="602" type="line" smooth="yes"/>
      <point x="822" y="639"/>
      <point x="824" y="650"/>
      <point x="901" y="650" type="curve" smooth="yes"/>
      <point x="923" y="650" type="line"/>
      <point x="923" y="683" type="line"/>
      <point x="754" y="683" type="line" smooth="yes"/>
      <point x="727" y="683"/>
      <point x="725" y="680"/>
      <point x="718" y="662" type="curve" smooth="yes"/>
      <point x="486" y="95" type="line"/>
      <point x="254" y="660" type="line" smooth="yes"/>
      <point x="246" y="680"/>
      <point x="245" y="683"/>
      <point x="217" y="683" type="curve" smooth="yes"/>
      <point x="49" y="683" type="line"/>
      <point x="49" y="650" type="line"/>
      <point x="71" y="650" type="line" smooth="yes"/>
      <point x="148" y="650"/>
      <point x="150" y="639"/>
      <point x="150" y="602" type="curve" smooth="yes"/>
    </contour>
  </outline>
</glyph>
<glyph name="N" format="2">
  <advance width="795"/>
  <unicode hex="004E"/>
  <outline>
    <contour>
      <point x="145" y="107" type="line" smooth="yes"/>
      <point x="145" y="81"/>
      <point x="145" y="33"/>
      <point x="44" y="33" type="curve"/>
      <point x="44" y="0" type="line"/>
      <point x="89" y="3"/>
      <point x="136" y="3"/>
      <point x="162" y="3" type="curve" smooth="yes"/>
      <point x="188" y="3"/>
      <point x="235" y="3"/>
      <point x="280" y="0" type="curve"/>
      <point x="280" y="33" type="line"/>
      <point x="179" y="33"/>
      <point x="179" y="81"/>
      <point x="179" y="107" type="curve" smooth="yes"/>
      <point x="179" y="617" type="line"/>
      <point x="179.0" y="617.0"/>
      <point x="179.0" y="617.0"/>
      <point x="179" y="617" type="curve"/>
      <point x="612" y="15" type="line" smooth="yes"/>
      <point x="621" y="3"/>
      <point x="623" y="0"/>
      <point x="633" y="0" type="curve" smooth="yes"/>
      <point x="650" y="0"/>
      <point x="650" y="10"/>
      <point x="650" y="28" type="curve" smooth="yes"/>
      <point x="650" y="576" type="line" smooth="yes"/>
      <point x="650" y="602"/>
      <point x="650" y="650"/>
      <point x="751" y="650" type="curve"/>
      <point x="751" y="683" type="line"/>
      <point x="706" y="680"/>
      <point x="659" y="680"/>
      <point x="633" y="680" type="curve" smooth="yes"/>
      <point x="607" y="680"/>
      <point x="560" y="680"/>
      <point x="515" y="683" type="curve"/>
      <point x="515" y="650" type="line"/>
      <point x="616" y="650"/>
      <point x="616" y="602"/>
      <point x="616" y="576" type="curve" smooth="yes"/>
      <point x="616" y="149" type="line"/>
      <point x="243" y="668" type="line" smooth="yes"/>
      <point x="232" y="682"/>
      <point x="231" y="683"/>
      <point x="211" y="683" type="curve" smooth="yes"/>
      <point x="44" y="683" type="line"/>
      <point x="44" y="650" type="line"/>
      <point x="72" y="650" type="line" smooth="yes"/>
      <point x="90" y="650"/>
      <point x="98" y="650"/>
      <point x="118" y="648" type="curve" smooth="yes"/>
      <point x="144" y="645"/>
      <point x="145" y="644"/>
      <point x="145" y="625" type="curve" smooth="yes"/>
    </contour>
  </outline>
</glyph>
<glyph name="O" format="2">
  <advance width="826"/>
  <unicode hex="004F"/>
  <outline>
    <contour>
      <point x="766" y="339" type="curve" smooth="yes"/>
      <point x="766" y="540"/>
      <point x="607" y="704"/>
      <point x="413" y="704" type="curve" smooth="yes"/>
      <point x="216" y="704"/>
      <point x="59" y="539"/>
      <point x="59" y="339" type="curve" smooth="yes"/>
      <point x="59" y="135"/>
      <point x="222" y="-21"/>
      <point x="412" y="-21" type="curve" smooth="yes"/>
      <point x="606" y="-21"/>
      <point x="766" y="137"/>
    </contour>
    <contour>
      <point x="413" y="12" type="curve" smooth="yes"/>
      <point x="304" y="12"/>
      <point x="163" y="103"/>
      <point x="163" y="354" type="curve" smooth="yes"/>
      <point x="163" y="593"/>
      <point x="309" y="673"/>
      <point x="412" y="673" type="curve" smooth="yes"/>
      <point x="520" y="673"/>
      <point x="662" y="589"/>
      <point x="662" y="354" type="curve" smooth="yes"/>
      <point x="662" y="100"/>
      <point x="518" y="12"/>
    </contour>
  </outline>
</glyph>
<glyph name="P" format="2">
  <advance width="722"/>
  <unicode hex="0050"/>
  <outline>
    <contour>
      <point x="239" y="312" type="line"/>
      <point x="421" y="312" type="line" smooth="yes"/>
      <point x="544" y="312"/>
      <point x="663" y="391"/>
      <point x="663" y="496" type="curve" smooth="yes"/>
      <point x="663" y="594"/>
      <point x="557" y="683"/>
      <point x="413" y="683" type="curve" smooth="yes"/>
      <point x="46" y="683" type="line"/>
      <point x="46" y="650" type="line"/>
      <point x="68" y="650" type="line" smooth="yes"/>
      <point x="145" y="650"/>
      <point x="147" y="639"/>
      <point x="147" y="602" type="curve" smooth="yes"/>
      <point x="147" y="81" type="line" smooth="yes"/>
      <point x="147" y="44"/>
      <point x="145" y="33"/>
      <point x="68" y="33" type="curve" smooth="yes"/>
      <point x="46" y="33" type="line"/>
      <point x="46" y="0" type="line"/>
      <point x="131" y="3"/>
      <point x="133" y="3"/>
      <point x="193" y="3" type="curve" smooth="yes"/>
      <point x="253" y="3"/>
      <point x="255" y="3"/>
      <point x="340" y="0" type="curve"/>
      <point x="340" y="33" type="line"/>
      <point x="318" y="33" type="line" smooth="yes"/>
      <point x="241" y="33"/>
      <point x="239" y="44"/>
      <point x="239" y="81" type="curve" smooth="yes"/>
    </contour>
    <contour>
      <point x="236" y="342" type="line"/>
      <point x="236" y="609" type="line" smooth="yes"/>
      <point x="236" y="643"/>
      <point x="238" y="650"/>
      <point x="284" y="650" type="curve" smooth="yes"/>
      <point x="388" y="650" type="line" smooth="yes"/>
      <point x="559" y="650"/>
      <point x="559" y="541"/>
      <point x="559" y="496" type="curve" smooth="yes"/>
      <point x="559" y="452"/>
      <point x="559" y="342"/>
      <point x="388" y="342" type="curve" smooth="yes"/>
    </contour>
  </outline>
</glyph>
<glyph name="R" format="2">
  <advance width="781"/>
  <unicode hex="0052"/>
  <outline>
    <contour>
      <point x="147" y="81" type="line" smooth="yes"/>
      <point x="147" y="44"/>
      <point x="145" y="33"/>
      <point x="68" y="33" type="curve" smooth="yes"/>
      <point x="46" y="33" type="line"/>
      <point x="46" y="0" type="line"/>
      <point x="131" y="3"/>
      <point x="133" y="3"/>
      <point x="191" y="3" type="curve" smooth="yes"/>
      <point x="250" y="3"/>
      <point x="252" y="3"/>
      <point x="337" y="0" type="curve"/>
      <point x="337" y="33" type="line"/>
      <point x="315" y="33" type="line" smooth="yes"/>
      <point x="238" y="33"/>
      <point x="236" y="44"/>
      <point x="236" y="81" type="curve" smooth="yes"/>
      <point x="236" y="328" type="line"/>
      <point x="362" y="328" type="line" smooth="yes"/>
      <point x="436" y="328"/>
      <point x="469" y="291"/>
      <point x="476" y="283" type="curve" smooth="yes"/>
      <point x="505" y="251"/>
      <point x="505" y="232"/>
      <point x="505" y="164" type="curve" smooth="yes"/>
      <point x="505" y="101"/>
      <point x="505" y="58"/>
      <point x="547" y="21" type="curve" smooth="yes"/>
      <point x="590" y="-16"/>
      <point x="646" y="-21"/>
      <point x="675" y="-21" type="curve" smooth="yes"/>
      <point x="758" y="-21"/>
      <point x="778" y="61"/>
      <point x="778" y="91" type="curve" smooth="yes"/>
      <point x="778" y="97"/>
      <point x="778" y="110"/>
      <point x="762" y="110" type="curve" smooth="yes"/>
      <point x="748" y="110"/>
      <point x="748" y="99"/>
      <point x="747" y="92" type="curve"/>
      <point x="742" y="29"/>
      <point x="707" y="7"/>
      <point x="679" y="7" type="curve" smooth="yes"/>
      <point x="642.30754" y="7.0"/>
      <point x="627.7769996848" y="28.238506364599996"/>
      <point x="616.5848755461191" y="81.6958961402972" type="curve" smooth="yes"/>
      <point x="611.3056400788" y="106.91131946809998"/>
      <point x="606.76918" y="139.29522999999998"/>
      <point x="601" y="180" type="curve" smooth="yes"/>
      <point x="594" y="237"/>
      <point x="584" y="306"/>
      <point x="474" y="340" type="curve"/>
      <point x="552" y="360"/>
      <point x="648" y="417"/>
      <point x="648" y="503" type="curve" smooth="yes"/>
      <point x="648" y="602"/>
      <point x="521" y="683"/>
      <point x="372" y="683" type="curve" smooth="yes"/>
      <point x="46" y="683" type="line"/>
      <point x="46" y="650" type="line"/>
      <point x="68" y="650" type="line" smooth="yes"/>
      <point x="145" y="650"/>
      <point x="147" y="639"/>
      <point x="147" y="602" type="curve" smooth="yes"/>
    </contour>
    <contour>
      <point x="236" y="356" type="line"/>
      <point x="236" y="609" type="line" smooth="yes"/>
      <point x="236" y="635"/>
      <point x="237" y="646"/>
      <point x="261" y="649" type="curve" smooth="yes"/>
      <point x="270" y="650"/>
      <point x="302" y="650"/>
      <point x="322" y="650" type="curve" smooth="yes"/>
      <point x="412" y="650"/>
      <point x="544" y="650"/>
      <point x="544" y="503" type="curve" smooth="yes"/>
      <point x="544" y="392"/>
      <point x="464" y="356"/>
      <point x="359" y="356" type="curve" smooth="yes"/>
    </contour>
  </outline>
</glyph>
<glyph name="T" format="2">
  <advance width="767"/>
  <unicode hex="0054"/>
  <outline>
    <contour>
      <point x="708" y="676" type="line"/>
      <point x="58" y="676" type="line"/>
      <point x="38" y="449" type="line"/>
      <point x="69" y="449" type="line"/>
      <point x="83" y="618"/>
      <point x="106" y="643"/>
      <point x="259" y="643" type="curve" smooth="yes"/>
      <point x="278" y="643"/>
      <point x="309" y="643"/>
      <point x="317" y="641" type="curve" smooth="yes"/>
      <point x="336" y="637"/>
      <point x="337" y="627"/>
      <point x="337" y="602" type="curve" smooth="yes"/>
      <point x="337" y="82" type="line" smooth="yes"/>
      <point x="337" y="47"/>
      <point x="337" y="33"/>
      <point x="233" y="33" type="curve" smooth="yes"/>
      <point x="195" y="33" type="line"/>
      <point x="195" y="0" type="line"/>
      <point x="232" y="3"/>
      <point x="340" y="3"/>
      <point x="383" y="3" type="curve" smooth="yes"/>
      <point x="426" y="3"/>
      <point x="534" y="3"/>
      <point x="571" y="0" type="curve"/>
      <point x="571" y="33" type="line"/>
      <point x="533" y="33" type="line" smooth="yes"/>
      <point x="429" y="33"/>
      <point x="429" y="47"/>
      <point x="429" y="82" type="curve" smooth="yes"/>
      <point x="429" y="602" type="line" smooth="yes"/>
      <point x="429" y="625"/>
      <point x="429" y="637"/>
      <point x="450" y="641" type="curve" smooth="yes"/>
      <point x="459" y="643"/>
      <point x="488" y="643"/>
      <point x="507" y="643" type="curve" smooth="yes"/>
      <point x="660" y="643"/>
      <point x="683" y="618"/>
      <point x="697" y="449" type="curve"/>
      <point x="728" y="449" type="line"/>
    </contour>
  </outline>
</glyph>
<glyph name="a" format="2">
  <advance width="531"/>
  <unicode hex="0061"/>
  <outline>
    <contour>
      <point x="420" y="298" type="line" smooth="yes"/>
      <point x="420" y="396"/>
      <point x="325" y="446"/>
      <point x="234" y="446" type="curve" smooth="yes"/>
      <point x="151" y="446"/>
      <point x="77" y="414"/>
      <point x="77" y="348" type="curve" smooth="yes"/>
      <point x="77" y="318"/>
      <point x="98" y="300"/>
      <point x="124" y="300" type="curve" smooth="yes"/>
      <point x="152" y="300"/>
      <point x="171" y="320"/>
      <point x="171" y="347" type="curve" smooth="yes"/>
      <point x="171" y="371"/>
      <point x="156" y="388"/>
      <point x="134" y="393" type="curve"/>
      <point x="171" y="418"/>
      <point x="225" y="418"/>
      <point x="232" y="418" type="curve" smooth="yes"/>
      <point x="288" y="418"/>
      <point x="344" y="379"/>
      <point x="344" y="297" type="curve" smooth="yes"/>
      <point x="344" y="266" type="line"/>
      <point x="286" y="263"/>
      <point x="219" y="260"/>
      <point x="149" y="231" type="curve" smooth="yes"/>
      <point x="61" y="193"/>
      <point x="44" y="135"/>
      <point x="44" y="102" type="curve" smooth="yes"/>
      <point x="44" y="16"/>
      <point x="145" y="-10"/>
      <point x="214" y="-10" type="curve" smooth="yes"/>
      <point x="287" y="-10"/>
      <point x="332" y="31"/>
      <point x="354" y="71" type="curve"/>
      <point x="359" y="33"/>
      <point x="385" y="-5"/>
      <point x="429" y="-5" type="curve" smooth="yes"/>
      <point x="439" y="-5"/>
      <point x="524" y="-1"/>
      <point x="524" y="90" type="curve" smooth="yes"/>
      <point x="524" y="145" type="line"/>
      <point x="493" y="145" type="line"/>
      <point x="493" y="90" type="line" smooth="yes"/>
      <point x="493" y="49"/>
      <point x="478" y="33"/>
      <point x="457" y="33" type="curve" smooth="yes"/>
      <point x="420" y="33"/>
      <point x="420" y="79"/>
      <point x="420" y="90" type="curve" smooth="yes"/>
    </contour>
    <contour>
      <point x="344" y="141" type="line" smooth="yes"/>
      <point x="344" y="44"/>
      <point x="262" y="18"/>
      <point x="222" y="18" type="curve" smooth="yes"/>
      <point x="170" y="18"/>
      <point x="126" y="53"/>
      <point x="126" y="101" type="curve" smooth="yes"/>
      <point x="126" y="167"/>
      <point x="188" y="235"/>
      <point x="344" y="240" type="curve"/>
    </contour>
  </outline>
</glyph>
<glyph name="d" format="2">
  <advance width="590"/>
  <unicode hex="0064"/>
  <outline>
    <contour>
      <point x="402" y="53" type="curve"/>
      <point x="402" y="-10" type="line"/>
      <point x="554" y="0" type="line"/>
      <point x="554" y="33" type="line"/>
      <point x="486" y="33"/>
      <point x="478" y="40"/>
      <point x="478" y="89" type="curve" smooth="yes"/>
      <point x="478" y="694" type="line"/>
      <point x="329" y="683" type="line"/>
      <point x="329" y="650" type="line"/>
      <point x="397" y="650"/>
      <point x="405" y="643"/>
      <point x="405" y="594" type="curve" smooth="yes"/>
      <point x="405" y="383" type="line"/>
      <point x="370" y="421"/>
      <point x="323" y="441"/>
      <point x="271" y="441" type="curve" smooth="yes"/>
      <point x="146" y="441"/>
      <point x="35" y="344"/>
      <point x="35" y="215" type="curve" smooth="yes"/>
      <point x="35" y="92"/>
      <point x="135" y="-10"/>
      <point x="261" y="-10" type="curve" smooth="yes"/>
      <point x="320" y="-10"/>
      <point x="369" y="18"/>
    </contour>
    <contour>
      <point x="124" y="214" type="curve" smooth="yes"/>
      <point x="124" y="272"/>
      <point x="133" y="313"/>
      <point x="156" y="348" type="curve" smooth="yes"/>
      <point x="180" y="385"/>
      <point x="225" y="413"/>
      <point x="276" y="413" type="curve" smooth="yes"/>
      <point x="324" y="413"/>
      <point x="372" y="389"/>
      <point x="402" y="337" type="curve"/>
      <point x="402" y="337" type="line"/>
      <point x="402" y="124" type="line" smooth="yes"/>
      <point x="402" y="106"/>
      <point x="402" y="102"/>
      <point x="387" y="82" type="curve" smooth="yes"/>
      <point x="359" y="42"/>
      <point x="313" y="18"/>
      <point x="266" y="18" type="curve" smooth="yes"/>
      <point x="220" y="18"/>
      <point x="180" y="42"/>
      <point x="156" y="79" type="curve" smooth="yes"/>
      <point x="129" y="118"/>
      <point x="124" y="167"/>
    </contour>
  </outline>
</glyph>
<glyph name="g" format="2">
  <advance width="531"/>
  <unicode hex="0067"/>
  <outline>
    <contour>
      <point x="265" y="-205" type="curve" smooth="yes"/>
      <point x="390" y="-205"/>
      <point x="500" y="-154"/>
      <point x="500" y="-75" type="curve" smooth="yes"/>
      <point x="500" y="-21"/>
      <point x="468" y="21"/>
      <point x="435" y="38" type="curve" smooth="yes"/>
      <point x="376" y="69"/>
      <point x="327" y="69"/>
      <point x="229" y="69" type="curve" smooth="yes"/>
      <point x="210" y="69"/>
      <point x="192" y="69"/>
      <point x="173" y="69" type="curve"/>
      <point x="142" y="72"/>
      <point x="117" y="99"/>
      <point x="117" y="135" type="curve" smooth="yes"/>
      <point x="117" y="159"/>
      <point x="123" y="168"/>
      <point x="130" y="177" type="curve"/>
      <point x="172" y="152"/>
      <point x="211" y="147"/>
      <point x="235" y="147" type="curve" smooth="yes"/>
      <point x="334" y="147"/>
      <point x="407" y="216"/>
      <point x="407" y="294" type="curve" smooth="yes"/>
      <point x="407" y="332"/>
      <point x="390" y="364"/>
      <point x="366" y="390" type="curve"/>
      <point x="380" y="402"/>
      <point x="413" y="423"/>
      <point x="462" y="424" type="curve"/>
      <point x="458" y="421"/>
      <point x="453" y="416"/>
      <point x="453" y="400" type="curve" smooth="yes"/>
      <point x="453" y="382"/>
      <point x="466" y="369"/>
      <point x="484" y="369" type="curve" smooth="yes"/>
      <point x="498" y="369"/>
      <point x="515" y="378"/>
      <point x="515" y="401" type="curve" smooth="yes"/>
      <point x="515" y="418"/>
      <point x="502" y="452"/>
      <point x="458" y="452" type="curve" smooth="yes"/>
      <point x="441" y="452"/>
      <point x="393" y="448"/>
      <point x="347" y="406" type="curve"/>
      <point x="322" y="424"/>
      <point x="283" y="441"/>
      <point x="236" y="441" type="curve" smooth="yes"/>
      <point x="137" y="441"/>
      <point x="64" y="372"/>
      <point x="64" y="294" type="curve" smooth="yes"/>
      <point x="64" y="247"/>
      <point x="90" y="212"/>
      <point x="111" y="192" type="curve"/>
      <point x="89" y="167"/>
      <point x="81" y="135"/>
      <point x="81" y="111" type="curve" smooth="yes"/>
      <point x="81" y="70"/>
      <point x="101" y="39"/>
      <point x="123" y="22" type="curve"/>
      <point x="71" y="8"/>
      <point x="30" y="-31"/>
      <point x="30" y="-77" type="curve" smooth="yes"/>
      <point x="30" y="-149"/>
      <point x="133" y="-205"/>
    </contour>
    <contour>
      <point x="236" y="176" type="curve" smooth="yes"/>
      <point x="143" y="176"/>
      <point x="143" y="272"/>
      <point x="143" y="294" type="curve" smooth="yes"/>
      <point x="143" y="331"/>
      <point x="148" y="357"/>
      <point x="163" y="377" type="curve" smooth="yes"/>
      <point x="180" y="400"/>
      <point x="208" y="412"/>
      <point x="235" y="412" type="curve" smooth="yes"/>
      <point x="328" y="412"/>
      <point x="328" y="316"/>
      <point x="328" y="294" type="curve" smooth="yes"/>
      <point x="328" y="257"/>
      <point x="323" y="231"/>
      <point x="308" y="211" type="curve" smooth="yes"/>
      <point x="286" y="183"/>
      <point x="254" y="176"/>
    </contour>
    <contour>
      <point x="265" y="-176" type="curve" smooth="yes"/>
      <point x="165" y="-176"/>
      <point x="89" y="-130"/>
      <point x="89" y="-76" type="curve" smooth="yes"/>
      <point x="89.0" y="-62.49994"/>
      <point x="95.6123036736" y="-33.2956587752"/>
      <point x="122.1206158320828" y="-14.157543659488638" type="curve" smooth="yes"/>
      <point x="136.8472726536" y="-3.525389796399997"/>
      <point x="157.71452" y="4.000000000000004"/>
      <point x="187" y="4" type="curve" smooth="yes"/>
      <point x="283" y="4" type="line" smooth="yes"/>
      <point x="310" y="4"/>
      <point x="441" y="4"/>
      <point x="441" y="-76" type="curve" smooth="yes"/>
      <point x="441" y="-130"/>
      <point x="364" y="-176"/>
    </contour>
  </outline>
</glyph>
<glyph name="h" format="2">
  <advance width="590"/>
  <unicode hex="0068"/>
  <outline>
    <contour>
      <point x="486" y="303" type="line" smooth="yes"/>
      <point x="486" y="387"/>
      <point x="448" y="441"/>
      <point x="343" y="441" type="curve" smooth="yes"/>
      <point x="255" y="441"/>
      <point x="209" y="385"/>
      <point x="191" y="353" type="curve"/>
      <point x="190" y="353" type="line"/>
      <point x="190" y="694" type="line"/>
      <point x="41" y="683" type="line"/>
      <point x="41" y="650" type="line"/>
      <point x="109" y="650"/>
      <point x="117" y="643"/>
      <point x="117" y="594" type="curve" smooth="yes"/>
      <point x="117" y="78" type="line" smooth="yes"/>
      <point x="117" y="33"/>
      <point x="105" y="33"/>
      <point x="41" y="33" type="curve"/>
      <point x="41" y="0" type="line"/>
      <point x="84" y="3"/>
      <point x="128" y="3"/>
      <point x="155" y="3" type="curve" smooth="yes"/>
      <point x="184" y="3"/>
      <point x="226" y="3"/>
      <point x="269" y="0" type="curve"/>
      <point x="269" y="33" type="line"/>
      <point x="205" y="33"/>
      <point x="193" y="33"/>
      <point x="193" y="78" type="curve" smooth="yes"/>
      <point x="193" y="259" type="line" smooth="yes"/>
      <point x="193" y="364"/>
      <point x="273" y="413"/>
      <point x="334" y="413" type="curve" smooth="yes"/>
      <point x="395" y="413"/>
      <point x="410" y="370"/>
      <point x="410" y="307" type="curve" smooth="yes"/>
      <point x="410" y="78" type="line" smooth="yes"/>
      <point x="410" y="33"/>
      <point x="398" y="33"/>
      <point x="334" y="33" type="curve"/>
      <point x="334" y="0" type="line"/>
      <point x="377" y="3"/>
      <point x="421" y="3"/>
      <point x="448" y="3" type="curve" smooth="yes"/>
      <point x="477" y="3"/>
      <point x="519" y="3"/>
      <point x="562" y="0" type="curve"/>
      <point x="562" y="33" type="line"/>
      <point x="498" y="33"/>
      <point x="486" y="33"/>
      <point x="486" y="78" type="curve" smooth="yes"/>
    </contour>
  </outline>
</glyph>
<glyph name="i" format="2">
  <advance width="295"/>
  <unicode hex="0069"/>
  <outline>
    <contour>
      <point x="195" y="616" type="curve" smooth="yes"/>
      <point x="195" y="645"/>
      <point x="172" y="672"/>
      <point x="139" y="672" type="curve" smooth="yes"/>
      <point x="110" y="672"/>
      <point x="84" y="649"/>
      <point x="84" y="617" type="curve" smooth="yes"/>
      <point x="84" y="582"/>
      <point x="113" y="561"/>
      <point x="139" y="561" type="curve" smooth="yes"/>
      <point x="174" y="561"/>
      <point x="195" y="590"/>
    </contour>
    <contour>
      <point x="45" y="430" type="line"/>
      <point x="45" y="397" type="line"/>
      <point x="109" y="397"/>
      <point x="118" y="391"/>
      <point x="118" y="342" type="curve" smooth="yes"/>
      <point x="118" y="78" type="line" smooth="yes"/>
      <point x="118" y="33"/>
      <point x="106" y="33"/>
      <point x="42" y="33" type="curve"/>
      <point x="42" y="0" type="line"/>
      <point x="81" y="3"/>
      <point x="137" y="3"/>
      <point x="152" y="3" type="curve" smooth="yes"/>
      <point x="165" y="3"/>
      <point x="225" y="3"/>
      <point x="260" y="0" type="curve"/>
      <point x="260" y="33" type="line"/>
      <point x="195" y="33"/>
      <point x="191" y="38"/>
      <point x="191" y="77" type="curve" smooth="yes"/>
      <point x="191" y="441" type="line"/>
    </contour>
  </outline>
</glyph>
<glyph name="m" format="2">
  <advance width="885"/>
  <unicode hex="006D"/>
  <outline>
    <contour>
      <point x="781" y="303" type="line" smooth="yes"/>
      <point x="781" y="384"/>
      <point x="746" y="441"/>
      <point x="637" y="441" type="curve" smooth="yes"/>
      <point x="545" y="441"/>
      <point x="499" y="378"/>
      <point x="483" y="349" type="curve"/>
      <point x="465" y="421"/>
      <point x="408" y="441"/>
      <point x="343" y="441" type="curve" smooth="yes"/>
      <point x="246" y="441"/>
      <point x="200" y="372"/>
      <point x="187" y="345" type="curve"/>
      <point x="186" y="345" type="line"/>
      <point x="186" y="441" type="line"/>
      <point x="41" y="430" type="line"/>
      <point x="41" y="397" type="line"/>
      <point x="109" y="397"/>
      <point x="117" y="390"/>
      <point x="117" y="341" type="curve" smooth="yes"/>
      <point x="117" y="78" type="line" smooth="yes"/>
      <point x="117" y="33"/>
      <point x="105" y="33"/>
      <point x="41" y="33" type="curve"/>
      <point x="41" y="0" type="line"/>
      <point x="84" y="3"/>
      <point x="128" y="3"/>
      <point x="155" y="3" type="curve" smooth="yes"/>
      <point x="184" y="3"/>
      <point x="226" y="3"/>
      <point x="269" y="0" type="curve"/>
      <point x="269" y="33" type="line"/>
      <point x="205" y="33"/>
      <point x="193" y="33"/>
      <point x="193" y="78" type="curve" smooth="yes"/>
      <point x="193" y="259" type="line" smooth="yes"/>
      <point x="193" y="364"/>
      <point x="272" y="413"/>
      <point x="335" y="413" type="curve" smooth="yes"/>
      <point x="400" y="413"/>
      <point x="411" y="362"/>
      <point x="411" y="307" type="curve" smooth="yes"/>
      <point x="411" y="78" type="line" smooth="yes"/>
      <point x="411" y="33"/>
      <point x="399" y="33"/>
      <point x="335" y="33" type="curve"/>
      <point x="335" y="0" type="line"/>
      <point x="378" y="3"/>
      <point x="422" y="3"/>
      <point x="449" y="3" type="curve" smooth="yes"/>
      <point x="478" y="3"/>
      <point x="520" y="3"/>
      <point x="563" y="0" type="curve"/>
      <point x="563" y="33" type="line"/>
      <point x="499" y="33"/>
      <point x="487" y="33"/>
      <point x="487" y="78" type="curve" smooth="yes"/>
      <point x="487" y="259" type="line" smooth="yes"/>
      <point x="487" y="364"/>
      <point x="566" y="413"/>
      <point x="629" y="413" type="curve" smooth="yes"/>
      <point x="694" y="413"/>
      <point x="705" y="362"/>
      <point x="705" y="307" type="curve" smooth="yes"/>
      <point x="705" y="78" type="line" smooth="yes"/>
      <point x="705" y="33"/>
      <point x="693" y="33"/>
      <point x="629" y="33" type="curve"/>
      <point x="629" y="0" type="line"/>
      <point x="672" y="3"/>
      <point x="716" y="3"/>
      <point x="743" y="3" type="curve" smooth="yes"/>
      <point x="772" y="3"/>
      <point x="814" y="3"/>
      <point x="857" y="0" type="curve"/>
      <point x="857" y="33" type="line"/>
      <point x="793" y="33"/>
      <point x="781" y="33"/>
      <point x="781" y="78" type="curve" smooth="yes"/>
    </contour>
  </outline>
</glyph>
<glyph name="n" format="2">
  <advance width="590"/>
  <unicode hex="006E"/>
  <outline>
    <contour>
      <point x="117" y="78" type="line" smooth="yes"/>
      <point x="117" y="33"/>
      <point x="105" y="33"/>
      <point x="41" y="33" type="curve"/>
      <point x="41" y="33" type="line"/>
      <point x="41" y="0" type="line"/>
      <point x="84" y="3"/>
      <point x="128" y="3"/>
      <point x="155" y="3" type="curve" smooth="yes"/>
      <point x="184" y="3"/>
      <point x="226" y="3"/>
      <point x="269" y="0" type="curve"/>
      <point x="269" y="33" type="line"/>
      <point x="269" y="33" type="line"/>
      <point x="205" y="33"/>
      <point x="193" y="33"/>
      <point x="193" y="78" type="curve" smooth="yes"/>
      <point x="193" y="259" type="line" smooth="yes"/>
      <point x="193" y="364"/>
      <point x="273" y="413"/>
      <point x="334" y="413" type="curve" smooth="yes"/>
      <point x="395" y="413"/>
      <point x="410" y="370"/>
      <point x="410" y="307" type="curve" smooth="yes"/>
      <point x="410" y="78" type="line" smooth="yes"/>
      <point x="410" y="33"/>
      <point x="398" y="33"/>
      <point x="334" y="33" type="curve"/>
      <point x="334" y="33" type="line"/>
      <point x="334" y="0" type="line"/>
      <point x="377" y="3"/>
      <point x="421" y="3"/>
      <point x="448" y="3" type="curve" smooth="yes"/>
      <point x="477" y="3"/>
      <point x="519" y="3"/>
      <point x="562" y="0" type="curve"/>
      <point x="562" y="33" type="line"/>
      <point x="562" y="33" type="line"/>
      <point x="498" y="33"/>
      <point x="486" y="33"/>
      <point x="486" y="78" type="curve" smooth="yes"/>
      <point x="486" y="303" type="line" smooth="yes"/>
      <point x="486.0" y="346.46832"/>
      <point x="475.8241490848" y="381.903073488"/>
      <point x="451.4538109223912" y="405.9784924650962" type="curve" smooth="yes"/>
      <point x="428.7298881232" y="428.4274202784"/>
      <point x="393.6646" y="441.0"/>
      <point x="343" y="441" type="curve" smooth="yes"/>
      <point x="244" y="441"/>
      <point x="199" y="369"/>
      <point x="187" y="345" type="curve"/>
      <point x="186" y="345" type="line"/>
      <point x="186" y="441" type="line"/>
      <point x="41" y="430" type="line"/>
      <point x="41" y="397" type="line"/>
      <point x="109" y="397"/>
      <point x="117" y="390"/>
      <point x="117" y="341" type="curve" smooth="yes"/>
    </contour>
  </outline>
</glyph>
<glyph name="q" format="2">
  <advance width="560"/>
  <unicode hex="0071"/>
  <outline>
    <contour>
      <point x="403" y="-116" type="line" smooth="yes"/>
      <point x="403" y="-161"/>
      <point x="391" y="-161"/>
      <point x="327" y="-161" type="curve"/>
      <point x="327" y="-161" type="line"/>
      <point x="327" y="-194" type="line"/>
      <point x="370" y="-191"/>
      <point x="414" y="-191"/>
      <point x="441" y="-191" type="curve" smooth="yes"/>
      <point x="470" y="-191"/>
      <point x="512" y="-191"/>
      <point x="555" y="-194" type="curve"/>
      <point x="555" y="-161" type="line"/>
      <point x="555" y="-161" type="line"/>
      <point x="491" y="-161"/>
      <point x="479" y="-161"/>
      <point x="479" y="-116" type="curve" smooth="yes"/>
      <point x="479" y="441" type="line"/>
      <point x="451" y="441" type="line"/>
      <point x="414" y="354" type="line"/>
      <point x="381" y="407"/>
      <point x="333" y="441"/>
      <point x="270" y="441" type="curve" smooth="yes"/>
      <point x="145" y="441"/>
      <point x="35" y="344"/>
      <point x="35" y="215" type="curve" smooth="yes"/>
      <point x="35" y="90"/>
      <point x="138" y="-10"/>
      <point x="261" y="-10" type="curve" smooth="yes"/>
      <point x="333" y="-10"/>
      <point x="379" y="30"/>
      <point x="403" y="60" type="curve"/>
    </contour>
    <contour>
      <point x="124" y="215" type="curve" smooth="yes"/>
      <point x="124" y="329"/>
      <point x="198" y="410"/>
      <point x="277" y="410" type="curve" smooth="yes"/>
      <point x="358" y="410"/>
      <point x="406" y="329"/>
      <point x="406" y="274" type="curve" smooth="yes"/>
      <point x="406" y="142" type="line" smooth="yes"/>
      <point x="406" y="126"/>
      <point x="406" y="120"/>
      <point x="391" y="94" type="curve" smooth="yes"/>
      <point x="354" y="33"/>
      <point x="301" y="18"/>
      <point x="267" y="18" type="curve" smooth="yes"/>
      <point x="187" y="18"/>
      <point x="124" y="107"/>
    </contour>
  </outline>
</glyph>
<glyph name="s" format="2">
  <advance width="419"/>
  <unicode hex="0073"/>
  <outline>
    <contour>
      <point x="212" y="-10" type="curve" smooth="yes"/>
      <point x="339" y="-10"/>
      <point x="383" y="63"/>
      <point x="383" y="129" type="curve" smooth="yes"/>
      <point x="383.0" y="155.5944"/>
      <point x="374.0978293275" y="188.942170855"/>
      <point x="345.91876014363737" y="217.13788717614125" type="curve" smooth="yes"/>
      <point x="319" y="244"/>
      <point x="286" y="263"/>
      <point x="175" y="280" type="curve" smooth="yes"/>
      <point x="136" y="286"/>
      <point x="89" y="309"/>
      <point x="89" y="349" type="curve" smooth="yes"/>
      <point x="89" y="379"/>
      <point x="111" y="421"/>
      <point x="206" y="421" type="curve" smooth="yes"/>
      <point x="318" y="421"/>
      <point x="323" y="339"/>
      <point x="325" y="311" type="curve" smooth="yes"/>
      <point x="326" y="303"/>
      <point x="333" y="300"/>
      <point x="340" y="300" type="curve" smooth="yes"/>
      <point x="356" y="300"/>
      <point x="356" y="307"/>
      <point x="356" y="326" type="curve" smooth="yes"/>
      <point x="356" y="420" type="line" smooth="yes"/>
      <point x="356" y="436"/>
      <point x="356" y="446"/>
      <point x="343" y="446" type="curve" smooth="yes"/>
      <point x="338" y="446"/>
      <point x="335" y="446"/>
      <point x="319" y="430" type="curve" smooth="yes"/>
      <point x="316" y="427"/>
      <point x="308" y="420"/>
      <point x="305" y="420" type="curve" smooth="yes"/>
      <point x="296" y="420"/>
      <point x="277" y="446"/>
      <point x="206" y="446" type="curve" smooth="yes"/>
      <point x="66" y="446"/>
      <point x="35" y="370"/>
      <point x="35" y="322" type="curve" smooth="yes"/>
      <point x="35" y="272"/>
      <point x="72" y="243"/>
      <point x="75" y="240" type="curve" smooth="yes"/>
      <point x="115" y="210"/>
      <point x="138" y="206"/>
      <point x="205" y="194" type="curve" smooth="yes"/>
      <point x="236.83874" y="187.90322"/>
      <point x="282.444415692" y="179.511950718"/>
      <point x="308.5543023865738" y="153.5937294457581" type="curve" smooth="yes"/>
      <point x="320.9875450572" y="141.2517557544"/>
      <point x="329.0" y="124.93544"/>
      <point x="329" y="103" type="curve" smooth="yes"/>
      <point x="329" y="64"/>
      <point x="303" y="18"/>
      <point x="211" y="18" type="curve" smooth="yes"/>
      <point x="110" y="18"/>
      <point x="81" y="96"/>
      <point x="68" y="149" type="curve"/>
      <point x="64" y="162"/>
      <point x="63" y="167"/>
      <point x="51" y="167" type="curve" smooth="yes"/>
      <point x="35" y="167"/>
      <point x="35" y="159"/>
      <point x="35" y="140" type="curve" smooth="yes"/>
      <point x="35" y="16" type="line" smooth="yes"/>
      <point x="35" y="0"/>
      <point x="35" y="-10"/>
      <point x="48" y="-10" type="curve" smooth="yes"/>
      <point x="54" y="-10"/>
      <point x="55" y="-9"/>
      <point x="73" y="10" type="curve" smooth="yes"/>
      <point x="94" y="33" type="line"/>
      <point x="139" y="-8"/>
      <point x="186" y="-10"/>
    </contour>
  </outline>
</glyph>
<glyph name="t" format="2">
  <advance width="413"/>
  <unicode hex="0074"/>
  <outline>
    <contour>
      <point x="186" y="398" type="line"/>
      <point x="335" y="398" type="line"/>
      <point x="335" y="431" type="line"/>
      <point x="186" y="431" type="line"/>
      <point x="186" y="615" type="line"/>
      <point x="155" y="615" type="line"/>
      <point x="154" y="524"/>
      <point x="113" y="429"/>
      <point x="20" y="426" type="curve"/>
      <point x="20" y="398" type="line"/>
      <point x="110" y="398" type="line"/>
      <point x="110" y="125" type="line" smooth="yes"/>
      <point x="110" y="8"/>
      <point x="200" y="-10"/>
      <point x="246" y="-10" type="curve" smooth="yes"/>
      <point x="313" y="-10"/>
      <point x="353" y="50"/>
      <point x="353" y="125" type="curve" smooth="yes"/>
      <point x="353" y="181" type="line"/>
      <point x="322" y="181" type="line"/>
      <point x="322" y="127" type="line" smooth="yes"/>
      <point x="322" y="58"/>
      <point x="291" y="21"/>
      <point x="253" y="21" type="curve" smooth="yes"/>
      <point x="186" y="21"/>
      <point x="186" y="107"/>
      <point x="186" y="123" type="curve" smooth="yes"/>
    </contour>
  </outline>
</glyph>
<glyph name="v" format="2">
  <advance width="560"/>
  <unicode hex="0076"/>
  <outline>
    <contour>
      <point x="443" y="328" type="line" smooth="yes"/>
      <point x="467" y="384"/>
      <point x="501" y="397"/>
      <point x="538" y="398" type="curve"/>
      <point x="538" y="431" type="line"/>
      <point x="503" y="428"/>
      <point x="501" y="428"/>
      <point x="460" y="428" type="curve" smooth="yes"/>
      <point x="451" y="428"/>
      <point x="404" y="428"/>
      <point x="373" y="431" type="curve"/>
      <point x="373" y="398" type="line"/>
      <point x="408" y="396"/>
      <point x="417" y="374"/>
      <point x="417" y="357" type="curve" smooth="yes"/>
      <point x="417" y="347"/>
      <point x="415" y="342"/>
      <point x="411" y="333" type="curve" smooth="yes"/>
      <point x="303" y="81" type="line"/>
      <point x="185" y="352" type="line" smooth="yes"/>
      <point x="179" y="365"/>
      <point x="179" y="371"/>
      <point x="179" y="373" type="curve" smooth="yes"/>
      <point x="179" y="398"/>
      <point x="215" y="398"/>
      <point x="232" y="398" type="curve"/>
      <point x="232" y="431" type="line"/>
      <point x="189" y="428"/>
      <point x="142" y="428"/>
      <point x="123" y="428" type="curve" smooth="yes"/>
      <point x="102" y="428"/>
      <point x="54" y="428"/>
      <point x="22" y="431" type="curve"/>
      <point x="22" y="398" type="line"/>
      <point x="83" y="398"/>
      <point x="88" y="392"/>
      <point x="103" y="358" type="curve" smooth="yes"/>
      <point x="253" y="12" type="line" smooth="yes"/>
      <point x="260" y="-3"/>
      <point x="266" y="-10"/>
      <point x="280" y="-10" type="curve" smooth="yes"/>
      <point x="294" y="-10"/>
      <point x="301" y="-2"/>
      <point x="306" y="10" type="curve" smooth="yes"/>
    </contour>
  </outline>
</glyph>
<glyph name="z" format="2">
  <advance width="472"/>
  <unicode hex="007A"/>
  <outline>
    <contour>
      <point x="329" y="403" type="line"/>
      <point x="39" y="37" type="line" smooth="yes"/>
      <point x="32" y="28"/>
      <point x="30" y="26"/>
      <point x="30" y="17" type="curve" smooth="yes"/>
      <point x="30" y="0"/>
      <point x="41" y="0"/>
      <point x="58" y="0" type="curve" smooth="yes"/>
      <point x="409" y="0" type="line"/>
      <point x="427" y="193" type="line"/>
      <point x="396" y="193" type="line"/>
      <point x="386" y="77"/>
      <point x="367" y="31"/>
      <point x="244" y="31" type="curve" smooth="yes"/>
      <point x="125" y="31" type="line"/>
      <point x="415" y="396" type="line" smooth="yes"/>
      <point x="422" y="405"/>
      <point x="424" y="407"/>
      <point x="424" y="415" type="curve" smooth="yes"/>
      <point x="424" y="431"/>
      <point x="412" y="431"/>
      <point x="396" y="431" type="curve" smooth="yes"/>
      <point x="56" y="431" type="line"/>
      <point x="44" y="264" type="line"/>
      <point x="75" y="264" type="line"/>
      <point x="81" y="368"/>
      <point x="103" y="403"/>
      <point x="215" y="403" type="curve" smooth="yes"/>
    </contour>
  </outline>
</glyph>
<glyph name="exclamdown" format="2">
  <advance width="295"/>
  <unicode hex="00A1"/>
  <outline>
    <contour>
      <point x="147" y="-215" type="curve" smooth="yes"/>
      <point x="176" y="-215"/>
      <point x="203" y="-194"/>
      <point x="203" y="-162" type="curve"/>
      <point x="164" y="288" type="line"/>
      <point x="163" y="304"/>
      <point x="161" y="309"/>
      <point x="148" y="309" type="curve" smooth="yes"/>
      <point x="134" y="309"/>
      <point x="133" y="305"/>
      <point x="131" y="287" type="curve" smooth="yes"/>
      <point x="92" y="-162" type="line"/>
      <point x="92" y="-196"/>
      <point x="121" y="-215"/>
    </contour>
    <contour>
      <point x="203" y="444" type="curve" smooth="yes"/>
      <point x="203" y="478"/>
      <point x="176" y="500"/>
      <point x="148" y="500" type="curve" smooth="yes"/>
      <point x="117" y="500"/>
      <point x="92" y="475"/>
      <point x="92" y="444" type="curve" smooth="yes"/>
      <point x="92" y="414"/>
      <point x="117" y="389"/>
      <point x="147" y="389" type="curve" smooth="yes"/>
      <point x="180" y="389"/>
      <point x="203" y="416"/>
    </contour>
  </outline>
</glyph>
<glyph name="questiondown" format="2">
  <advance width="501"/>
  <unicode hex="00BF"/>
  <outline>
    <contour>
      <point x="235" y="-204" type="curve" smooth="yes"/>
      <point x="351" y="-204"/>
      <point x="442" y="-153"/>
      <point x="442" y="-70" type="curve" smooth="yes"/>
      <point x="442" y="-30"/>
      <point x="411" y="-21"/>
      <point x="395" y="-21" type="curve" smooth="yes"/>
      <point x="372" y="-21"/>
      <point x="348" y="-37"/>
      <point x="348" y="-68" type="curve" smooth="yes"/>
      <point x="348" y="-101"/>
      <point x="374" y="-115"/>
      <point x="396" y="-116" type="curve"/>
      <point x="354" y="-171"/>
      <point x="266" y="-176"/>
      <point x="238" y="-176" type="curve" smooth="yes"/>
      <point x="149" y="-176"/>
      <point x="148" y="-122"/>
      <point x="148" y="-75" type="curve" smooth="yes"/>
      <point x="148" y="-19"/>
      <point x="160" y="-3"/>
      <point x="175" y="17" type="curve" smooth="yes"/>
      <point x="250" y="114"/>
      <point x="251" y="212"/>
      <point x="251" y="263" type="curve" smooth="yes"/>
      <point x="251" y="273"/>
      <point x="251" y="283"/>
      <point x="251" y="293" type="curve" smooth="yes"/>
      <point x="251" y="304"/>
      <point x="248" y="309"/>
      <point x="236" y="309" type="curve" smooth="yes"/>
      <point x="220" y="309"/>
      <point x="220" y="303"/>
      <point x="220" y="283" type="curve" smooth="yes"/>
      <point x="220" y="252" type="line" smooth="yes"/>
      <point x="220" y="158"/>
      <point x="173" y="86"/>
      <point x="112" y="37" type="curve" smooth="yes"/>
      <point x="95" y="23"/>
      <point x="59" y="-5"/>
      <point x="59" y="-68" type="curve" smooth="yes"/>
      <point x="59" y="-118"/>
      <point x="86" y="-204"/>
    </contour>
    <contour>
      <point x="291" y="444" type="curve" smooth="yes"/>
      <point x="291" y="478"/>
      <point x="264" y="500"/>
      <point x="236" y="500" type="curve" smooth="yes"/>
      <point x="205" y="500"/>
      <point x="180" y="475"/>
      <point x="180" y="444" type="curve" smooth="yes"/>
      <point x="180" y="414"/>
      <point x="205" y="389"/>
      <point x="235" y="389" type="curve" smooth="yes"/>
      <point x="268" y="389"/>
      <point x="291" y="416"/>
    </contour>
  </outline>
</glyph>
<glyph name="oslash" format="2">
  <advance width="531"/>
  <unicode hex="00F8"/>
  <outline>
    <contour>
      <point x="468" y="520" type="line"/>
      <point x="456" y="529"/>
      <point x="454" y="529"/>
      <point x="444" y="535" type="curve"/>
      <point x="373" y="419" type="line"/>
      <point x="327" y="442"/>
      <point x="288" y="446"/>
      <point x="265" y="446" type="curve" smooth="yes"/>
      <point x="137" y="446"/>
      <point x="36" y="339"/>
      <point x="36" y="213" type="curve" smooth="yes"/>
      <point x="36" y="145"/>
      <point x="68" y="74"/>
      <point x="135" y="30" type="curve"/>
      <point x="62" y="-89" type="line"/>
      <point x="74" y="-98"/>
      <point x="76" y="-98"/>
      <point x="86" y="-104" type="curve"/>
      <point x="159" y="15" type="line"/>
      <point x="197" y="-3"/>
      <point x="232" y="-10"/>
      <point x="265" y="-10" type="curve" smooth="yes"/>
      <point x="390" y="-10"/>
      <point x="494" y="88"/>
      <point x="494" y="213" type="curve" smooth="yes"/>
      <point x="494" y="262"/>
      <point x="477" y="345"/>
      <point x="397" y="403" type="curve"/>
    </contour>
    <contour>
      <point x="155" y="63" type="line"/>
      <point x="115" y="106"/>
      <point x="112" y="168"/>
      <point x="112" y="213" type="curve" smooth="yes"/>
      <point x="112" y="275"/>
      <point x="119" y="322"/>
      <point x="149" y="363" type="curve" smooth="yes"/>
      <point x="172" y="394"/>
      <point x="215" y="418"/>
      <point x="265" y="418" type="curve" smooth="yes"/>
      <point x="296" y="418"/>
      <point x="328" y="409"/>
      <point x="354" y="389" type="curve"/>
    </contour>
    <contour>
      <point x="376" y="369" type="line"/>
      <point x="414" y="324"/>
      <point x="418" y="262"/>
      <point x="418" y="213" type="curve" smooth="yes"/>
      <point x="418" y="161"/>
      <point x="413" y="113"/>
      <point x="383" y="73" type="curve" smooth="yes"/>
      <point x="361" y="44"/>
      <point x="319" y="18"/>
      <point x="265" y="18" type="curve" smooth="yes"/>
      <point x="234" y="18"/>
      <point x="203" y="27"/>
      <point x="177" y="44" type="curve"/>
    </contour>
  </outline>
</glyph>
<glyph name="dotlessi" format="2">
  <advance width="295"/>
  <unicode hex="0131"/>
  <outline>
    <contour>
      <point x="118" y="78" type="line" smooth="yes"/>
      <point x="118" y="33"/>
      <point x="106" y="33"/>
      <point x="42" y="33" type="curve"/>
      <point x="42" y="33" type="line"/>
      <point x="42" y="0" type="line"/>
      <point x="81" y="3"/>
      <point x="137" y="3"/>
      <point x="152" y="3" type="curve" smooth="yes"/>
      <point x="165" y="3"/>
      <point x="225" y="3"/>
      <point x="260" y="0" type="curve"/>
      <point x="260" y="33" type="line"/>
      <point x="195" y="33"/>
      <point x="191" y="38"/>
      <point x="191" y="77" type="curve" smooth="yes"/>
      <point x="191" y="441" type="line"/>
      <point x="45" y="430" type="line"/>
      <point x="45" y="397" type="line"/>
      <point x="109" y="397"/>
      <point x="118" y="391"/>
      <point x="118" y="342" type="curve" smooth="yes"/>
    </contour>
  </outline>
</glyph>
<glyph name="OE" format="2">
  <advance width="1076"/>
  <unicode hex="0152"/>
  <outline>
    <contour>
      <point x="1046" y="260" type="line"/>
      <point x="1015" y="260" type="line"/>
      <point x="989" y="109"/>
      <point x="971" y="33"/>
      <point x="797" y="33" type="curve" smooth="yes"/>
      <point x="673" y="33" type="line" smooth="yes"/>
      <point x="627" y="33"/>
      <point x="625" y="40"/>
      <point x="625" y="74" type="curve" smooth="yes"/>
      <point x="625" y="338" type="line"/>
      <point x="740" y="338" type="line" smooth="yes"/>
      <point x="841" y="338"/>
      <point x="860" y="311"/>
      <point x="860" y="221" type="curve"/>
      <point x="891" y="221" type="line"/>
      <point x="891" y="488" type="line"/>
      <point x="860" y="488" type="line"/>
      <point x="860" y="398"/>
      <point x="842" y="371"/>
      <point x="740" y="371" type="curve" smooth="yes"/>
      <point x="625" y="371" type="line"/>
      <point x="625" y="609" type="line" smooth="yes"/>
      <point x="625" y="643"/>
      <point x="627" y="650"/>
      <point x="673" y="650" type="curve" smooth="yes"/>
      <point x="796" y="650" type="line" smooth="yes"/>
      <point x="952" y="650"/>
      <point x="969" y="586"/>
      <point x="986" y="456" type="curve"/>
      <point x="1017" y="456" type="line"/>
      <point x="988" y="683" type="line"/>
      <point x="588" y="683" type="line" smooth="yes"/>
      <point x="573" y="683"/>
      <point x="557" y="683"/>
      <point x="501" y="694" type="curve" smooth="yes"/>
      <point x="455" y="704"/>
      <point x="437" y="704"/>
      <point x="425" y="704" type="curve" smooth="yes"/>
      <point x="236" y="704"/>
      <point x="73" y="543"/>
      <point x="73" y="339" type="curve" smooth="yes"/>
      <point x="73" y="133"/>
      <point x="239" y="-21"/>
      <point x="425" y="-21" type="curve" smooth="yes"/>
      <point x="438" y="-21"/>
      <point x="455" y="-21"/>
      <point x="506" y="-11" type="curve" smooth="yes"/>
      <point x="557" y="0"/>
      <point x="573" y="0"/>
      <point x="588" y="0" type="curve" smooth="yes"/>
      <point x="1002" y="0" type="line"/>
    </contour>
    <contour>
      <point x="545" y="190" type="line" smooth="yes"/>
      <point x="545" y="40"/>
      <point x="517" y="7"/>
      <point x="429" y="7" type="curve" smooth="yes"/>
      <point x="288" y="7"/>
      <point x="174" y="161"/>
      <point x="174" y="354" type="curve" smooth="yes"/>
      <point x="174" y="538"/>
      <point x="290" y="676"/>
      <point x="429" y="676" type="curve" smooth="yes"/>
      <point x="517" y="676"/>
      <point x="545" y="644"/>
      <point x="545" y="493" type="curve" smooth="yes"/>
    </contour>
  </outline>
</glyph>
<glyph name="circumflex" format="2">
  <advance width="531"/>
  <unicode hex="02C6"/>
  <outline>
    <contour>
      <point x="265" y="694" type="line"/>
      <point x="123" y="560" type="line"/>
      <point x="143" y="536" type="line"/>
      <point x="265" y="635" type="line"/>
      <point x="387" y="536" type="line"/>
      <point x="407" y="559" type="line"/>
    </contour>
  </outline>
</glyph>
<glyph name="dotaccent" format="2">
  <advance width="295"/>
  <unicode hex="02D9"/>
  <outline>
    <contour>
      <point x="202" y="616" type="curve" smooth="yes"/>
      <point x="202" y="649"/>
      <point x="176" y="672"/>
      <point x="147" y="672" type="curve" smooth="yes"/>
      <point x="118" y="672"/>
      <point x="92" y="649"/>
      <point x="92" y="616" type="curve" smooth="yes"/>
      <point x="92" y="587"/>
      <point x="115" y="561"/>
      <point x="147" y="561" type="curve" smooth="yes"/>
      <point x="178" y="561"/>
      <point x="202" y="587"/>
    </contour>
  </outline>
</glyph>
<glyph name="hungarumlaut" format="2">
  <advance width="531"/>
  <unicode hex="02DD"/>
  <outline>
    <contour>
      <point x="254" y="631" type="line" smooth="yes"/>
      <point x="262" y="642"/>
      <point x="268" y="649"/>
      <point x="268" y="661" type="curve" smooth="yes"/>
      <point x="268" y="686"/>
      <point x="244" y="700"/>
      <point x="227" y="700" type="curve" smooth="yes"/>
      <point x="203" y="700"/>
      <point x="194" y="679"/>
      <point x="190" y="668" type="curve" smooth="yes"/>
      <point x="134" y="527" type="line"/>
      <point x="160" y="511" type="line"/>
    </contour>
    <contour>
      <point x="431" y="631" type="line" smooth="yes"/>
      <point x="439" y="642"/>
      <point x="445" y="649"/>
      <point x="445" y="661" type="curve" smooth="yes"/>
      <point x="445" y="686"/>
      <point x="421" y="700"/>
      <point x="404" y="700" type="curve" smooth="yes"/>
      <point x="380" y="700"/>
      <point x="371" y="679"/>
      <point x="367" y="668" type="curve" smooth="yes"/>
      <point x="311" y="527" type="line"/>
      <point x="337" y="511" type="line"/>
    </contour>
  </outline>
</glyph>
<glyph name="Gamma" format="2">
  <advance width="663"/>
  <unicode hex="0393"/>
  <outline>
    <contour>
      <point x="590" y="680" type="line"/>
      <point x="44" y="680" type="line"/>
      <point x="44" y="647" type="line"/>
      <point x="66" y="647" type="line" smooth="yes"/>
      <point x="143" y="647"/>
      <point x="145" y="636"/>
      <point x="145" y="599" type="curve" smooth="yes"/>
      <point x="145" y="81" type="line" smooth="yes"/>
      <point x="145" y="44"/>
      <point x="143" y="33"/>
      <point x="66" y="33" type="curve" smooth="yes"/>
      <point x="44" y="33" type="line"/>
      <point x="44" y="0" type="line"/>
      <point x="129" y="3"/>
      <point x="131" y="3"/>
      <point x="198" y="3" type="curve" smooth="yes"/>
      <point x="245" y="3"/>
      <point x="318" y="3"/>
      <point x="363" y="0" type="curve"/>
      <point x="363" y="33" type="line"/>
      <point x="331" y="33" type="line" smooth="yes"/>
      <point x="237" y="33"/>
      <point x="237" y="47"/>
      <point x="237" y="82" type="curve" smooth="yes"/>
      <point x="237" y="606" type="line" smooth="yes"/>
      <point x="237" y="640"/>
      <point x="239" y="647"/>
      <point x="285" y="647" type="curve" smooth="yes"/>
      <point x="400" y="647" type="line" smooth="yes"/>
      <point x="555" y="647"/>
      <point x="571" y="582"/>
      <point x="588" y="453" type="curve"/>
      <point x="619" y="453" type="line"/>
    </contour>
  </outline>
</glyph>
<glyph name="Theta" format="2">
  <advance width="826"/>
  <unicode hex="0398"/>
  <outline>
    <contour>
      <point x="766" y="339" type="curve" smooth="yes"/>
      <point x="766" y="540"/>
      <point x="607" y="704"/>
      <point x="413" y="704" type="curve" smooth="yes"/>
      <point x="216" y="704"/>
      <point x="59" y="539"/>
      <point x="59" y="339" type="curve" smooth="yes"/>
      <point x="59" y="135"/>
      <point x="222" y="-21"/>
      <point x="412" y="-21" type="curve" smooth="yes"/>
      <point x="606" y="-21"/>
      <point x="766" y="137"/>
    </contour>
    <contour>
      <point x="413" y="9" type="curve" smooth="yes"/>
      <point x="299" y="9"/>
      <point x="156" y="101"/>
      <point x="156" y="339" type="curve" smooth="yes"/>
      <point x="156" y="579"/>
      <point x="298" y="676"/>
      <point x="412" y="676" type="curve" smooth="yes"/>
      <point x="531" y="676"/>
      <point x="669" y="575"/>
      <point x="669" y="339" type="curve" smooth="yes"/>
      <point x="669" y="97"/>
      <point x="522" y="9"/>
    </contour>
    <contour>
      <point x="609" y="416" type="line"/>
      <point x="578" y="416" type="line"/>
      <point x="578" y="382" type="line"/>
      <point x="247" y="382" type="line"/>
      <point x="247" y="416" type="line"/>
      <point x="216" y="416" type="line"/>
      <point x="216" y="269" type="line"/>
      <point x="247" y="269" type="line"/>
      <point x="247" y="303" type="line"/>
      <point x="578" y="303" type="line"/>
      <point x="578" y="269" type="line"/>
      <point x="609" y="269" type="line"/>
    </contour>
  </outline>
</glyph>
<glyph name="Lambda" format="2">
  <advance width="736"/>
  <unicode hex="039B"/>
  <outline>
    <contour>
      <point x="394" y="691" type="line" smooth="yes"/>
      <point x="388" y="707"/>
      <point x="383" y="714"/>
      <point x="368" y="714" type="curve" smooth="yes"/>
      <point x="353" y="714"/>
      <point x="348" y="707"/>
      <point x="342" y="691" type="curve" smooth="yes"/>
      <point x="135" y="100" type="line" smooth="yes"/>
      <point x="119" y="55"/>
      <point x="89" y="34"/>
      <point x="35" y="33" type="curve"/>
      <point x="35" y="0" type="line"/>
      <point x="67" y="3"/>
      <point x="102" y="3"/>
      <point x="130" y="3" type="curve" smooth="yes"/>
      <point x="147" y="3"/>
      <point x="195" y="3"/>
      <point x="240" y="0" type="curve"/>
      <point x="240" y="33" type="line"/>
      <point x="191" y="34"/>
      <point x="167" y="58"/>
      <point x="167" y="84" type="curve" smooth="yes"/>
      <point x="167" y="89"/>
      <point x="167" y="91"/>
      <point x="172" y="104" type="curve" smooth="yes"/>
      <point x="337" y="575" type="line"/>
      <point x="510" y="81" type="line" smooth="yes"/>
      <point x="515" y="68"/>
      <point x="515" y="66"/>
      <point x="515" y="63" type="curve" smooth="yes"/>
      <point x="515" y="33"/>
      <point x="460" y="33"/>
      <point x="434" y="33" type="curve"/>
      <point x="434" y="0" type="line"/>
      <point x="519" y="3"/>
      <point x="521" y="3"/>
      <point x="574" y="3" type="curve" smooth="yes"/>
      <point x="613" y="3"/>
      <point x="656" y="3"/>
      <point x="701" y="0" type="curve"/>
      <point x="701" y="33" type="line"/>
      <point x="642" y="33"/>
      <point x="624" y="33"/>
      <point x="610" y="73" type="curve" smooth="yes"/>
    </contour>
  </outline>
</glyph>
<glyph name="Xi" format="2">
  <advance width="708"/>
  <unicode hex="039E"/>
  <outline>
    <contour>
      <point x="53" y="0" type="line"/>
      <point x="654" y="0" type="line"/>
      <point x="663" y="170" type="line"/>
      <point x="632" y="170" type="line"/>
      <point x="631" y="147"/>
      <point x="628" y="100"/>
      <point x="620" y="84" type="curve" smooth="yes"/>
      <point x="614" y="73"/>
      <point x="560" y="73"/>
      <point x="536" y="73" type="curve" smooth="yes"/>
      <point x="171" y="73" type="line" smooth="yes"/>
      <point x="168" y="73"/>
      <point x="97" y="73"/>
      <point x="89" y="81" type="curve"/>
      <point x="79" y="93"/>
      <point x="76" y="144"/>
      <point x="75" y="170" type="curve"/>
      <point x="44" y="170" type="line"/>
    </contour>
    <contour>
      <point x="148" y="265" type="line"/>
      <point x="179" y="265" type="line"/>
      <point x="179" y="315" type="line"/>
      <point x="528" y="315" type="line"/>
      <point x="528" y="265" type="line"/>
      <point x="559" y="265" type="line"/>
      <point x="559" y="438" type="line"/>
      <point x="528" y="438" type="line"/>
      <point x="528" y="388" type="line"/>
      <point x="179" y="388" type="line"/>
      <point x="179" y="438" type="line"/>
      <point x="148" y="438" type="line"/>
    </contour>
    <contour>
      <point x="50" y="517" type="line"/>
      <point x="81" y="517" type="line"/>
      <point x="82" y="538"/>
      <point x="84" y="580"/>
      <point x="93" y="594" type="curve" smooth="yes"/>
      <point x="99" y="603"/>
      <point x="154" y="603"/>
      <point x="172" y="603" type="curve" smooth="yes"/>
      <point x="535" y="603" type="line" smooth="yes"/>
      <point x="536" y="603"/>
      <point x="606" y="603"/>
      <point x="612" y="595" type="curve" smooth="yes"/>
      <point x="622" y="582"/>
      <point x="625" y="543"/>
      <point x="626" y="517" type="curve"/>
      <point x="657" y="517" type="line"/>
      <point x="648" y="676" type="line"/>
      <point x="59" y="676" type="line"/>
    </contour>
  </outline>
</glyph>
<glyph name="Pi" format="2">
  <advance width="795"/>
  <unicode hex="03A0"/>
  <outline>
    <contour>
      <point x="650" y="599" type="line" smooth="yes"/>
      <point x="650" y="636"/>
      <point x="652" y="647"/>
      <point x="729" y="647" type="curve" smooth="yes"/>
      <point x="751" y="647" type="line"/>
      <point x="751" y="680" type="line"/>
      <point x="44" y="680" type="line"/>
      <point x="44" y="647" type="line"/>
      <point x="66" y="647" type="line" smooth="yes"/>
      <point x="143" y="647"/>
      <point x="145" y="636"/>
      <point x="145" y="599" type="curve" smooth="yes"/>
      <point x="145" y="81" type="line" smooth="yes"/>
      <point x="145" y="44"/>
      <point x="143" y="33"/>
      <point x="66" y="33" type="curve" smooth="yes"/>
      <point x="44" y="33" type="line"/>
      <point x="44" y="0" type="line"/>
      <point x="129" y="3"/>
      <point x="131" y="3"/>
      <point x="191" y="3" type="curve" smooth="yes"/>
      <point x="251" y="3"/>
      <point x="253" y="3"/>
      <point x="338" y="0" type="curve"/>
      <point x="338" y="33" type="line"/>
      <point x="316" y="33" type="line" smooth="yes"/>
      <point x="239" y="33"/>
      <point x="237" y="44"/>
      <point x="237" y="81" type="curve" smooth="yes"/>
      <point x="237" y="647" type="line"/>
      <point x="558" y="647" type="line"/>
      <point x="558" y="81" type="line" smooth="yes"/>
      <point x="558" y="44"/>
      <point x="556" y="33"/>
      <point x="479" y="33" type="curve" smooth="yes"/>
      <point x="457" y="33" type="line"/>
      <point x="457" y="0" type="line"/>
      <point x="542" y="3"/>
      <point x="544" y="3"/>
      <point x="604" y="3" type="curve" smooth="yes"/>
      <point x="664" y="3"/>
      <point x="666" y="3"/>
      <point x="751" y="0" type="curve"/>
      <point x="751" y="33" type="line"/>
      <point x="729" y="33" type="line" smooth="yes"/>
      <point x="652" y="33"/>
      <point x="650" y="44"/>
      <point x="650" y="81" type="curve" smooth="yes"/>
    </contour>
  </outline>
</glyph>
<glyph name="Sigma" format="2">
  <advance width="767"/>
  <unicode hex="03A3"/>
  <outline>
    <contour>
      <point x="390" y="324" type="line"/>
      <point x="402" y="335"/>
      <point x="402" y="337"/>
      <point x="402" y="342" type="curve" smooth="yes"/>
      <point x="402" y="346"/>
      <point x="398" y="352"/>
      <point x="395" y="356" type="curve" smooth="yes"/>
      <point x="180" y="650" type="line"/>
      <point x="424" y="650" type="line" smooth="yes"/>
      <point x="516.23812" y="650.0"/>
      <point x="580.5082229679999" y="641.9591951033"/>
      <point x="621.7713037331532" y="600.0390705747271" type="curve" smooth="yes"/>
      <point x="650.2954280776" y="571.0607484908"/>
      <point x="667.8254000000001" y="525.89283"/>
      <point x="676" y="456" type="curve"/>
      <point x="707" y="456" type="line"/>
      <point x="678" y="683" type="line"/>
      <point x="88" y="683" type="line" smooth="yes"/>
      <point x="66" y="683"/>
      <point x="59" y="683"/>
      <point x="59" y="660" type="curve" smooth="yes"/>
      <point x="59" y="660"/>
      <point x="59" y="660"/>
      <point x="59" y="660" type="curve"/>
      <point x="322" y="299" type="line"/>
      <point x="70" y="31" type="line" smooth="yes"/>
      <point x="61" y="21"/>
      <point x="59" y="20"/>
      <point x="59" y="14" type="curve" smooth="yes"/>
      <point x="59" y="0"/>
      <point x="72" y="0"/>
      <point x="88" y="0" type="curve" smooth="yes"/>
      <point x="678" y="0" type="line"/>
      <point x="707" y="239" type="line"/>
      <point x="676" y="239" type="line"/>
      <point x="666.63284" y="168.32052"/>
      <point x="649.8328470556" y="122.65886795919997"/>
      <point x="620.4283538999349" y="93.52424687229926" type="curve" smooth="yes"/>
      <point x="580.7725502928" y="54.2324010352"/>
      <point x="518.1916200000001" y="45.0"/>
      <point x="420" y="45" type="curve" smooth="yes"/>
      <point x="128" y="45" type="line"/>
    </contour>
  </outline>
</glyph>
<glyph name="Upsilon" format="2">
  <advance width="826"/>
  <unicode hex="03A5"/>
  <outline>
    <contour>
      <point x="459" y="348" type="line" smooth="yes"/>
      <point x="459" y="452"/>
      <point x="493" y="626"/>
      <point x="628" y="626" type="curve" smooth="yes"/>
      <point x="660" y="626"/>
      <point x="726" y="612"/>
      <point x="733" y="550" type="curve" smooth="yes"/>
      <point x="734" y="543"/>
      <point x="735" y="532"/>
      <point x="749" y="532" type="curve" smooth="yes"/>
      <point x="766" y="532"/>
      <point x="766" y="545"/>
      <point x="766" y="552" type="curve" smooth="yes"/>
      <point x="766" y="612"/>
      <point x="722" y="704"/>
      <point x="626" y="704" type="curve" smooth="yes"/>
      <point x="462" y="704"/>
      <point x="422" y="502"/>
      <point x="414" y="459" type="curve"/>
      <point x="413" y="459" type="line"/>
      <point x="383" y="618"/>
      <point x="303" y="704"/>
      <point x="199" y="704" type="curve" smooth="yes"/>
      <point x="103" y="704"/>
      <point x="59" y="611"/>
      <point x="59" y="552" type="curve" smooth="yes"/>
      <point x="59" y="545"/>
      <point x="59" y="532"/>
      <point x="76" y="532" type="curve" smooth="yes"/>
      <point x="86" y="532"/>
      <point x="91" y="538"/>
      <point x="92" y="546" type="curve" smooth="yes"/>
      <point x="100" y="626"/>
      <point x="189" y="626"/>
      <point x="197" y="626" type="curve" smooth="yes"/>
      <point x="332" y="626"/>
      <point x="367" y="452"/>
      <point x="367" y="348" type="curve" smooth="yes"/>
      <point x="367" y="82" type="line" smooth="yes"/>
      <point x="367" y="47"/>
      <point x="367" y="33"/>
      <point x="273" y="33" type="curve" smooth="yes"/>
      <point x="241" y="33" type="line"/>
      <point x="241" y="0" type="line"/>
      <point x="286" y="3"/>
      <point x="365" y="3"/>
      <point x="413" y="3" type="curve" smooth="yes"/>
      <point x="461" y="3"/>
      <point x="540" y="3"/>
      <point x="585" y="0" type="curve"/>
      <point x="585" y="33" type="line"/>
      <point x="553" y="33" type="line" smooth="yes"/>
      <point x="459" y="33"/>
      <point x="459" y="47"/>
      <point x="459" y="82" type="curve" smooth="yes"/>
    </contour>
  </outline>
</glyph>
<glyph name="Phi" format="2">
  <advance width="767"/>
  <unicode hex="03A6"/>
  <outline>
    <contour>
      <point x="211" y="0" type="line"/>
      <point x="256" y="3"/>
      <point x="331" y="3"/>
      <point x="379" y="3" type="curve" smooth="yes"/>
      <point x="427" y="3"/>
      <point x="503" y="3"/>
      <point x="548" y="0" type="curve"/>
      <point x="548" y="33" type="line"/>
      <point x="516" y="33" type="line" smooth="yes"/>
      <point x="422" y="33"/>
      <point x="422" y="47"/>
      <point x="422" y="82" type="curve" smooth="yes"/>
      <point x="422" y="136" type="line"/>
      <point x="608" y="153"/>
      <point x="707" y="251"/>
      <point x="707" y="341" type="curve" smooth="yes"/>
      <point x="707" y="436"/>
      <point x="603" y="531"/>
      <point x="422" y="547" type="curve"/>
      <point x="422" y="601" type="line" smooth="yes"/>
      <point x="422" y="636"/>
      <point x="422" y="650"/>
      <point x="516" y="650" type="curve" smooth="yes"/>
      <point x="548" y="650" type="line"/>
      <point x="548" y="683" type="line"/>
      <point x="503" y="680"/>
      <point x="428" y="680"/>
      <point x="380" y="680" type="curve" smooth="yes"/>
      <point x="332" y="680"/>
      <point x="256" y="680"/>
      <point x="211" y="683" type="curve"/>
      <point x="211" y="650" type="line"/>
      <point x="243" y="650" type="line" smooth="yes"/>
      <point x="337" y="650"/>
      <point x="337" y="636"/>
      <point x="337" y="601" type="curve" smooth="yes"/>
      <point x="337" y="546" type="line"/>
      <point x="170" y="531"/>
      <point x="59" y="439"/>
      <point x="59" y="342" type="curve" smooth="yes"/>
      <point x="59" y="240"/>
      <point x="175" y="152"/>
      <point x="337" y="137" type="curve"/>
      <point x="337" y="82" type="line" smooth="yes"/>
      <point x="337" y="47"/>
      <point x="337" y="33"/>
      <point x="243" y="33" type="curve" smooth="yes"/>
      <point x="211" y="33" type="line"/>
    </contour>
    <contour>
      <point x="337" y="165" type="line"/>
      <point x="250" y="175"/>
      <point x="160" y="216"/>
      <point x="160" y="341" type="curve" smooth="yes"/>
      <point x="160" y="453"/>
      <point x="231" y="506"/>
      <point x="337" y="518" type="curve"/>
    </contour>
    <contour>
      <point x="422" y="165" type="curve"/>
      <point x="422" y="518" type="line"/>
      <point x="510" y="511"/>
      <point x="606" y="471"/>
      <point x="606" y="342" type="curve" smooth="yes"/>
      <point x="606" y="214"/>
      <point x="514" y="173"/>
    </contour>
  </outline>
</glyph>
<glyph name="Psi" format="2">
  <advance width="826"/>
  <unicode hex="03A8"/>
  <outline>
    <contour>
      <point x="452" y="601" type="line" smooth="yes"/>
      <point x="452" y="636"/>
      <point x="452" y="650"/>
      <point x="546" y="650" type="curve" smooth="yes"/>
      <point x="578" y="650" type="line"/>
      <point x="578" y="683" type="line"/>
      <point x="533" y="680"/>
      <point x="458" y="680"/>
      <point x="410" y="680" type="curve" smooth="yes"/>
      <point x="362" y="680"/>
      <point x="286" y="680"/>
      <point x="241" y="683" type="curve"/>
      <point x="241" y="650" type="line"/>
      <point x="273" y="650" type="line" smooth="yes"/>
      <point x="367" y="650"/>
      <point x="367" y="636"/>
      <point x="367" y="601" type="curve" smooth="yes"/>
      <point x="367" y="168" type="line"/>
      <point x="225" y="200"/>
      <point x="220" y="349"/>
      <point x="220" y="417" type="curve" smooth="yes"/>
      <point x="220" y="491"/>
      <point x="193" y="555"/>
      <point x="122" y="555" type="curve" smooth="yes"/>
      <point x="88" y="555" type="line" smooth="yes"/>
      <point x="73" y="555"/>
      <point x="59" y="555"/>
      <point x="59" y="541" type="curve" smooth="yes"/>
      <point x="59" y="529"/>
      <point x="71" y="527"/>
      <point x="74" y="527" type="curve"/>
      <point x="134" y="520"/>
      <point x="135" y="429"/>
      <point x="135" y="421" type="curve" smooth="yes"/>
      <point x="135" y="362"/>
      <point x="137" y="164"/>
      <point x="367" y="137" type="curve"/>
      <point x="367" y="82" type="line" smooth="yes"/>
      <point x="367" y="47"/>
      <point x="367" y="33"/>
      <point x="273" y="33" type="curve" smooth="yes"/>
      <point x="241" y="33" type="line"/>
      <point x="241" y="0" type="line"/>
      <point x="286" y="3"/>
      <point x="361" y="3"/>
      <point x="409" y="3" type="curve" smooth="yes"/>
      <point x="457" y="3"/>
      <point x="533" y="3"/>
      <point x="578" y="0" type="curve"/>
      <point x="578" y="33" type="line"/>
      <point x="546" y="33" type="line" smooth="yes"/>
      <point x="452" y="33"/>
      <point x="452" y="47"/>
      <point x="452" y="82" type="curve" smooth="yes"/>
      <point x="452" y="137" type="line"/>
      <point x="658" y="158"/>
      <point x="689" y="323"/>
      <point x="690" y="394" type="curve" smooth="yes"/>
      <point x="690" y="435"/>
      <point x="691" y="519"/>
      <point x="748" y="527" type="curve" smooth="yes"/>
      <point x="756" y="528"/>
      <point x="766" y="529"/>
      <point x="766" y="541" type="curve" smooth="yes"/>
      <point x="766" y="555"/>
      <point x="753" y="555"/>
      <point x="738" y="555" type="curve" smooth="yes"/>
      <point x="703" y="555" type="line" smooth="yes"/>
      <point x="630" y="555"/>
      <point x="606" y="494"/>
      <point x="605" y="399" type="curve" smooth="yes"/>
      <point x="604" y="306"/>
      <point x="573" y="192"/>
      <point x="452" y="167" type="curve"/>
    </contour>
  </outline>
</glyph>
<glyph name="Omega" format="2">
  <advance width="767"/>
  <unicode hex="2126"/>
  <outline>
    <contour>
      <point x="719" y="165" type="line"/>
      <point x="688" y="165" type="line"/>
      <point x="686" y="155"/>
      <point x="675" y="104"/>
      <point x="668" y="87" type="curve" smooth="yes"/>
      <point x="663" y="76"/>
      <point x="660" y="68"/>
      <point x="601" y="68" type="curve" smooth="yes"/>
      <point x="520" y="68" type="line"/>
      <point x="537" y="127"/>
      <point x="567" y="170"/>
      <point x="612" y="234" type="curve" smooth="yes"/>
      <point x="656" y="296"/>
      <point x="707" y="368"/>
      <point x="707" y="454" type="curve" smooth="yes"/>
      <point x="707" y="590"/>
      <point x="567" y="704"/>
      <point x="383" y="704" type="curve" smooth="yes"/>
      <point x="199" y="704"/>
      <point x="59" y="590"/>
      <point x="59" y="454" type="curve" smooth="yes"/>
      <point x="59" y="367"/>
      <point x="107" y="299"/>
      <point x="162" y="221" type="curve" smooth="yes"/>
      <point x="199" y="170"/>
      <point x="229" y="126"/>
      <point x="246" y="68" type="curve"/>
      <point x="165" y="68" type="line" smooth="yes"/>
      <point x="106" y="68"/>
      <point x="103" y="76"/>
      <point x="98" y="87" type="curve" smooth="yes"/>
      <point x="91" y="104"/>
      <point x="80" y="155"/>
      <point x="78" y="165" type="curve"/>
      <point x="47" y="165" type="line"/>
      <point x="82" y="0" type="line"/>
      <point x="253" y="0" type="line" smooth="yes"/>
      <point x="274" y="0"/>
      <point x="281" y="0"/>
      <point x="281" y="22" type="curve" smooth="yes"/>
      <point x="281" y="95"/>
      <point x="246" y="180"/>
      <point x="220" y="242" type="curve" smooth="yes"/>
      <point x="192" y="310"/>
      <point x="163" y="382"/>
      <point x="163" y="454" type="curve" smooth="yes"/>
      <point x="163" y="603"/>
      <point x="276" y="676"/>
      <point x="383" y="676" type="curve" smooth="yes"/>
      <point x="490" y="676"/>
      <point x="603" y="602"/>
      <point x="603" y="454" type="curve" smooth="yes"/>
      <point x="603" y="383"/>
      <point x="575" y="314"/>
      <point x="550" y="252" type="curve" smooth="yes"/>
      <point x="520" y="179"/>
      <point x="485" y="95"/>
      <point x="485" y="23" type="curve" smooth="yes"/>
      <point x="485" y="0"/>
      <point x="491" y="0"/>
      <point x="514" y="0" type="curve" smooth="yes"/>
      <point x="684" y="0" type="line"/>
    </contour>
  </outline>
</glyph>
<glyph name="Delta" format="2">
  <advance width="885"/>
  <unicode hex="2206"/>
  <outline>
    <contour>
      <point x="472" y="694" type="line" smooth="yes"/>
      <point x="461" y="714"/>
      <point x="449" y="714"/>
      <point x="442" y="714" type="curve" smooth="yes"/>
      <point x="435" y="714"/>
      <point x="423" y="714"/>
      <point x="412" y="694" type="curve" smooth="yes"/>
      <point x="58" y="25" type="line"/>
      <point x="51" y="14"/>
      <point x="51" y="12"/>
      <point x="51" y="10" type="curve" smooth="yes"/>
      <point x="51" y="0"/>
      <point x="59" y="0"/>
      <point x="75" y="0" type="curve" smooth="yes"/>
      <point x="809" y="0" type="line" smooth="yes"/>
      <point x="826" y="0"/>
      <point x="833" y="0"/>
      <point x="833" y="10" type="curve" smooth="yes"/>
      <point x="833" y="12"/>
      <point x="833" y="14"/>
      <point x="826" y="25" type="curve"/>
    </contour>
    <contour>
      <point x="409" y="616" type="line"/>
      <point x="694" y="79" type="line"/>
      <point x="124" y="79" type="line"/>
    </contour>
  </outline>
</glyph>
<glyph name="dotlessj" format="2">
  <advance width="324"/>
  <outline>
    <contour>
      <point x="227" y="441" type="line"/>
      <point x="70" y="430" type="line"/>
      <point x="70" y="397" type="line"/>
      <point x="145" y="397"/>
      <point x="154" y="390"/>
      <point x="154" y="341" type="curve" smooth="yes"/>
      <point x="154" y="-48" type="line" smooth="yes"/>
      <point x="154" y="-75"/>
      <point x="150" y="-176"/>
      <point x="81" y="-176" type="curve" smooth="yes"/>
      <point x="66" y="-176"/>
      <point x="44" y="-172"/>
      <point x="31" y="-167" type="curve"/>
      <point x="37" y="-165"/>
      <point x="58" y="-152"/>
      <point x="58" y="-124" type="curve" smooth="yes"/>
      <point x="58" y="-97"/>
      <point x="39" y="-77"/>
      <point x="11" y="-77" type="curve" smooth="yes"/>
      <point x="-14" y="-77"/>
      <point x="-36" y="-94"/>
      <point x="-36" y="-125" type="curve" smooth="yes"/>
      <point x="-36" y="-176"/>
      <point x="20" y="-204"/>
      <point x="82" y="-204" type="curve" smooth="yes"/>
      <point x="162" y="-204"/>
      <point x="227" y="-140"/>
      <point x="227" y="-46" type="curve" smooth="yes"/>
    </contour>
  </outline>
</glyph>
<glyph name="ff" format="2">
  <advance width="619"/>
  <outline>
    <contour>
      <point x="478" y="398" type="line"/>
      <point x="599" y="398" type="line"/>
      <point x="599" y="431" type="line"/>
      <point x="475" y="431" type="line"/>
      <point x="475" y="543" type="line" smooth="yes"/>
      <point x="475" y="633"/>
      <point x="525" y="676"/>
      <point x="569" y="676" type="curve" smooth="yes"/>
      <point x="572" y="676"/>
      <point x="584" y="676"/>
      <point x="598" y="671" type="curve"/>
      <point x="580" y="662"/>
      <point x="575" y="645"/>
      <point x="575" y="632" type="curve" smooth="yes"/>
      <point x="575" y="606"/>
      <point x="594" y="587"/>
      <point x="620" y="587" type="curve" smooth="yes"/>
      <point x="647" y="587"/>
      <point x="665" y="606"/>
      <point x="665" y="632" type="curve" smooth="yes"/>
      <point x="665" y="675"/>
      <point x="623" y="704"/>
      <point x="570" y="704" type="curve" smooth="yes"/>
      <point x="533" y="704"/>
      <point x="490" y="691"/>
      <point x="457" y="662" type="curve"/>
      <point x="424" y="701"/>
      <point x="365" y="704"/>
      <point x="338" y="704" type="curve" smooth="yes"/>
      <point x="238" y="704"/>
      <point x="111" y="654"/>
      <point x="111" y="541" type="curve" smooth="yes"/>
      <point x="111" y="431" type="line"/>
      <point x="29" y="431" type="line"/>
      <point x="29" y="398" type="line"/>
      <point x="111" y="398" type="line"/>
      <point x="111" y="78" type="line" smooth="yes"/>
      <point x="111" y="33"/>
      <point x="99" y="33"/>
      <point x="35" y="33" type="curve"/>
      <point x="35" y="0" type="line"/>
      <point x="74" y="3"/>
      <point x="130" y="3"/>
      <point x="147" y="3" type="curve" smooth="yes"/>
      <point x="167" y="3"/>
      <point x="221" y="3"/>
      <point x="260" y="0" type="curve"/>
      <point x="260" y="33" type="line"/>
      <point x="196" y="33"/>
      <point x="184" y="33"/>
      <point x="184" y="78" type="curve" smooth="yes"/>
      <point x="184" y="398" type="line"/>
      <point x="405" y="398" type="line"/>
      <point x="405" y="78" type="line" smooth="yes"/>
      <point x="405" y="33"/>
      <point x="393" y="33"/>
      <point x="329" y="33" type="curve"/>
      <point x="329" y="0" type="line"/>
      <point x="368" y="3"/>
      <point x="423" y="3"/>
      <point x="447" y="3" type="curve" smooth="yes"/>
      <point x="506" y="3"/>
      <point x="508" y="3"/>
      <point x="573" y="0" type="curve"/>
      <point x="573" y="33" type="line"/>
      <point x="553" y="33" type="line" smooth="yes"/>
      <point x="480" y="33"/>
      <point x="478" y="44"/>
      <point x="478" y="80" type="curve" smooth="yes"/>
    </contour>
    <contour>
      <point x="181" y="431" type="line"/>
      <point x="181" y="540" type="line" smooth="yes"/>
      <point x="181" y="637"/>
      <point x="268" y="676"/>
      <point x="336" y="676" type="curve" smooth="yes"/>
      <point x="345" y="676"/>
      <point x="383" y="676"/>
      <point x="412" y="660" type="curve"/>
      <point x="386" y="650"/>
      <point x="383" y="628"/>
      <point x="383" y="618" type="curve" smooth="yes"/>
      <point x="383" y="610"/>
      <point x="385" y="588"/>
      <point x="408" y="578" type="curve"/>
      <point x="405" y="566"/>
      <point x="405" y="548"/>
      <point x="405" y="543" type="curve" smooth="yes"/>
      <point x="405" y="431" type="line"/>
    </contour>
  </outline>
</glyph>
<glyph name="ffi" format="2">
  <advance width="885"/>
  <outline>
    <contour>
      <point x="642" y="434" type="line" smooth="yes"/>
      <point x="631" y="433"/>
      <point x="626" y="433"/>
      <point x="624" y="432" type="curve" smooth="yes"/>
      <point x="622" y="431"/>
      <point x="620" y="431"/>
      <point x="606" y="431" type="curve" smooth="yes"/>
      <point x="476" y="431" type="line"/>
      <point x="476" y="540" type="line" smooth="yes"/>
      <point x="476" y="639"/>
      <point x="569" y="676"/>
      <point x="631" y="676" type="curve" smooth="yes"/>
      <point x="661" y="676"/>
      <point x="691" y="669"/>
      <point x="716" y="650" type="curve"/>
      <point x="714" y="650"/>
      <point x="675" y="642"/>
      <point x="675" y="601" type="curve" smooth="yes"/>
      <point x="675" y="569"/>
      <point x="701" y="553"/>
      <point x="723" y="553" type="curve" smooth="yes"/>
      <point x="737" y="553"/>
      <point x="771" y="562"/>
      <point x="771" y="603" type="curve" smooth="yes"/>
      <point x="771" y="656"/>
      <point x="719" y="704"/>
      <point x="634" y="704" type="curve" smooth="yes"/>
      <point x="590" y="704"/>
      <point x="521" y="695"/>
      <point x="460" y="649" type="curve"/>
      <point x="442" y="675"/>
      <point x="403" y="704"/>
      <point x="337" y="704" type="curve" smooth="yes"/>
      <point x="240" y="704"/>
      <point x="111" y="655"/>
      <point x="111" y="541" type="curve" smooth="yes"/>
      <point x="111" y="431" type="line"/>
      <point x="29" y="431" type="line"/>
      <point x="29" y="398" type="line"/>
      <point x="111" y="398" type="line"/>
      <point x="111" y="78" type="line" smooth="yes"/>
      <point x="111" y="33"/>
      <point x="99" y="33"/>
      <point x="35" y="33" type="curve"/>
      <point x="35" y="0" type="line"/>
      <point x="74" y="3"/>
      <point x="130" y="3"/>
      <point x="147" y="3" type="curve" smooth="yes"/>
      <point x="167" y="3"/>
      <point x="221" y="3"/>
      <point x="260" y="0" type="curve"/>
      <point x="260" y="33" type="line"/>
      <point x="196" y="33"/>
      <point x="184" y="33"/>
      <point x="184" y="78" type="curve" smooth="yes"/>
      <point x="184" y="398" type="line"/>
      <point x="406" y="398" type="line"/>
      <point x="406" y="78" type="line" smooth="yes"/>
      <point x="406" y="33"/>
      <point x="394" y="33"/>
      <point x="330" y="33" type="curve"/>
      <point x="330" y="0" type="line"/>
      <point x="369" y="3"/>
      <point x="425" y="3"/>
      <point x="442" y="3" type="curve" smooth="yes"/>
      <point x="462" y="3"/>
      <point x="516" y="3"/>
      <point x="555" y="0" type="curve"/>
      <point x="555" y="33" type="line"/>
      <point x="491" y="33"/>
      <point x="479" y="33"/>
      <point x="479" y="78" type="curve" smooth="yes"/>
      <point x="479" y="398" type="line"/>
      <point x="651" y="398" type="line" smooth="yes"/>
      <point x="693" y="398"/>
      <point x="700" y="386"/>
      <point x="700" y="344" type="curve" smooth="yes"/>
      <point x="700" y="78" type="line" smooth="yes"/>
      <point x="700" y="33"/>
      <point x="688" y="33"/>
      <point x="624" y="33" type="curve"/>
      <point x="624" y="0" type="line"/>
      <point x="663" y="3"/>
      <point x="719" y="3"/>
      <point x="736" y="3" type="curve" smooth="yes"/>
      <point x="756" y="3"/>
      <point x="810" y="3"/>
      <point x="849" y="0" type="curve"/>
      <point x="849" y="33" type="line"/>
      <point x="785" y="33"/>
      <point x="773" y="33"/>
      <point x="773" y="78" type="curve" smooth="yes"/>
      <point x="773" y="443" type="line"/>
    </contour>
    <contour>
      <point x="181" y="431" type="line"/>
      <point x="181" y="540" type="line" smooth="yes"/>
      <point x="181" y="639"/>
      <point x="272" y="676"/>
      <point x="335" y="676" type="curve" smooth="yes"/>
      <point x="365" y="676"/>
      <point x="395" y="668"/>
      <point x="419" y="650" type="curve"/>
      <point x="417" y="650"/>
      <point x="378" y="643"/>
      <point x="378" y="601" type="curve" smooth="yes"/>
      <point x="378" y="578"/>
      <point x="390" y="564"/>
      <point x="406" y="557" type="curve"/>
      <point x="406" y="431" type="line"/>
    </contour>
  </outline>
</glyph>
<glyph name="fi" format="2">
  <advance width="590"/>
  <outline>
    <contour>
      <point x="347" y="434" type="line" smooth="yes"/>
      <point x="336" y="433"/>
      <point x="331" y="433"/>
      <point x="329" y="432" type="curve" smooth="yes"/>
      <point x="327" y="431"/>
      <point x="325" y="431"/>
      <point x="311" y="431" type="curve" smooth="yes"/>
      <point x="181" y="431" type="line"/>
      <point x="181" y="540" type="line" smooth="yes"/>
      <point x="181" y="639"/>
      <point x="274" y="676"/>
      <point x="336" y="676" type="curve" smooth="yes"/>
      <point x="366" y="676"/>
      <point x="396" y="669"/>
      <point x="421" y="650" type="curve"/>
      <point x="419" y="650"/>
      <point x="380" y="642"/>
      <point x="380" y="601" type="curve" smooth="yes"/>
      <point x="380" y="569"/>
      <point x="406" y="553"/>
      <point x="428" y="553" type="curve" smooth="yes"/>
      <point x="442" y="553"/>
      <point x="476" y="562"/>
      <point x="476" y="603" type="curve" smooth="yes"/>
      <point x="476" y="656"/>
      <point x="424" y="704"/>
      <point x="339" y="704" type="curve" smooth="yes"/>
      <point x="241" y="704"/>
      <point x="111" y="655"/>
      <point x="111" y="541" type="curve" smooth="yes"/>
      <point x="111" y="431" type="line"/>
      <point x="29" y="431" type="line"/>
      <point x="29" y="398" type="line"/>
      <point x="111" y="398" type="line"/>
      <point x="111" y="78" type="line" smooth="yes"/>
      <point x="111" y="33"/>
      <point x="99" y="33"/>
      <point x="35" y="33" type="curve"/>
      <point x="35" y="0" type="line"/>
      <point x="74" y="3"/>
      <point x="130" y="3"/>
      <point x="147" y="3" type="curve" smooth="yes"/>
      <point x="167" y="3"/>
      <point x="221" y="3"/>
      <point x="260" y="0" type="curve"/>
      <point x="260" y="33" type="line"/>
      <point x="196" y="33"/>
      <point x="184" y="33"/>
      <point x="184" y="78" type="curve" smooth="yes"/>
      <point x="184" y="398" type="line"/>
      <point x="356" y="398" type="line" smooth="yes"/>
      <point x="398" y="398"/>
      <point x="405" y="386"/>
      <point x="405" y="344" type="curve" smooth="yes"/>
      <point x="405" y="78" type="line" smooth="yes"/>
      <point x="405" y="33"/>
      <point x="393" y="33"/>
      <point x="329" y="33" type="curve"/>
      <point x="329" y="0" type="line"/>
      <point x="368" y="3"/>
      <point x="424" y="3"/>
      <point x="441" y="3" type="curve" smooth="yes"/>
      <point x="461" y="3"/>
      <point x="515" y="3"/>
      <point x="554" y="0" type="curve"/>
      <point x="554" y="33" type="line"/>
      <point x="490" y="33"/>
      <point x="478" y="33"/>
      <point x="478" y="78" type="curve" smooth="yes"/>
      <point x="478" y="443" type="line"/>
    </contour>
  </outline>
</glyph>
<glyph name="suppress" format="2">
  <advance width="295"/>
  <outline>
    <contour>
      <point x="280" y="361" type="line"/>
      <point x="269" y="392" type="line"/>
      <point x="28" y="312" type="line"/>
      <point x="39" y="280" type="line"/>
    </contour>
  </outline>
</glyph>
